{
  "source": "C:\\Users\\Peter\\Desktop\\stuff\\MIUN\\quantitative_research\\video_compression\\videos\\UVG\\Jockey_1920x1080_120fps_420_8bit_YUV.y4m",
  "output": "C:\\Users\\Peter\\Desktop\\stuff\\MIUN\\quantitative_research\\video_compression\\compressed_videos\\UVG\\av1\\4\\Jockey_1920x1080_120fps_420_8bit_YUV_av1.mkv",
  "codec": "av1",
  "ok": "[yuv4mpegpipe @ 000002514dcd5300] Stream #0: not enough frames to estimate rate; consider increasing probesize\nInput #0, yuv4mpegpipe, from 'C:\\Users\\Peter\\Desktop\\stuff\\MIUN\\quantitative_research\\video_compression\\videos\\UVG\\Jockey_1920x1080_120fps_420_8bit_YUV.y4m':\n  Duration: 00:00:05.00, start: 0.000000, bitrate: 2985989 kb/s\n  Stream #0:0: Video: rawvideo (I420 / 0x30323449), yuv420p(progressive), 1920x1080, 120 fps, 120 tbr, 120 tbn\n[out#0/matroska @ 000002514dcd9100] Codec AVOption b:a (set bitrate (in bits/s)) has not been used for any stream. The most likely reason is either wrong type (e.g. a video option with no video streams) or that it is a private option of some decoder which was not actually used for any stream.\nStream mapping:\n  Stream #0:0 -> #0:0 (rawvideo (native) -> av1 (libsvtav1))\nPress [q] to stop, [?] for help\nSvt[info]: -------------------------------------------\nSvt[info]: SVT [version]:\tSVT-AV1 Encoder Lib v3.1.0-19-g6ecfe8ec\nSvt[info]: SVT [build]  :\tGCC 15.2.0\t 64 bit\nSvt[info]: LIB Build date: Aug 17 2025 11:37:13\nSvt[info]: -------------------------------------------\n[libsvtav1 @ 000002514dcdc140] Specified chroma sample location center is unsupported on the AV1 bit stream level. Usage of a container that allows passing this information - such as Matroska - is recommended.\nSvt[info]: Level of Parallelism: 5\nSvt[info]: Number of PPCS 93\nSvt[info]: [asm level on system : up to avx2]\nSvt[info]: [asm level selected : up to avx2]\nSvt[info]: -------------------------------------------\nSvt[info]: SVT [config]: main profile\ttier (auto)\tlevel (auto)\nSvt[info]: SVT [config]: width / height / fps numerator / fps denominator \t\t: 1920 / 1080 / 120 / 1\nSvt[info]: SVT [config]: bit-depth / color format \t\t\t\t\t: 8 / YUV420\nSvt[info]: SVT [config]: preset / tune / pred struct \t\t\t\t\t: 4 / PSNR / random access\nSvt[info]: SVT [config]: gop size / mini-gop size / key-frame type \t\t\t: 641 / 16 / key frame\nSvt[info]: SVT [config]: BRC mode / target bitrate (kbps)\t\t\t\t: VBR / 4000 \nSvt[info]: SVT [config]: AQ mode / Variance Boost \t\t\t\t\t: 2 / 0\nSvt[info]: SVT [config]: sharpness / luminance-based QP bias \t\t\t\t: 0 / 0\nSvt[info]: SVT [config]: QP scale compress strength \t\t\t\t\t: 0\nSvt[info]: -------------------------------------------\nOutput #0, matroska, to 'C:\\Users\\Peter\\Desktop\\stuff\\MIUN\\quantitative_research\\video_compression\\compressed_videos\\UVG\\av1\\4\\Jockey_1920x1080_120fps_420_8bit_YUV_av1.mkv':\n  Metadata:\n    encoder         : Lavf62.3.100\n  Stream #0:0: Video: av1 (AV01 / 0x31305641), yuv420p(tv, progressive), 1920x1080, q=2-31, 4000 kb/s, 120 fps, 1k tbn\n    Metadata:\n      encoder         : Lavc62.11.100 libsvtav1\n    Side data:\n      cpb: bitrate max/min/avg: 0/0/4000000 buffer size: 4000000 vbv_delay: N/A\nframe=    0 fps=0.0 q=0.0 size=       0KiB time=N/A bitrate=N/A speed=N/A elapsed=0:00:02.85    \nframe=    0 fps=0.0 q=0.0 size=       0KiB time=N/A bitrate=N/A speed=N/A elapsed=0:00:03.42    \nframe=    0 fps=0.0 q=0.0 size=       0KiB time=N/A bitrate=N/A speed=N/A elapsed=0:00:03.95    \nframe=    0 fps=0.0 q=0.0 size=       0KiB time=N/A bitrate=N/A speed=N/A elapsed=0:00:04.52    \nframe=    0 fps=0.0 q=0.0 size=       0KiB time=N/A bitrate=N/A speed=N/A elapsed=0:00:05.07    \nframe=    0 fps=0.0 q=0.0 size=       0KiB time=N/A bitrate=N/A speed=N/A elapsed=0:00:05.62    \nframe=    0 fps=0.0 q=0.0 size=       0KiB time=N/A bitrate=N/A speed=N/A elapsed=0:00:06.21    \nframe=    0 fps=0.0 q=0.0 size=       0KiB time=N/A bitrate=N/A speed=N/A elapsed=0:00:06.78    \nframe=    0 fps=0.0 q=0.0 size=       0KiB time=N/A bitrate=N/A speed=N/A elapsed=0:00:07.37    \nframe=    0 fps=0.0 q=0.0 size=       0KiB time=N/A bitrate=N/A speed=N/A elapsed=0:00:07.96    \nframe=    0 fps=0.0 q=0.0 size=       0KiB time=N/A bitrate=N/A speed=N/A elapsed=0:00:08.53    \nframe=    0 fps=0.0 q=0.0 size=       0KiB time=N/A bitrate=N/A speed=N/A elapsed=0:00:09.09    \nframe=    0 fps=0.0 q=0.0 size=       0KiB time=N/A bitrate=N/A speed=N/A elapsed=0:00:09.65    \nframe=    0 fps=0.0 q=0.0 size=       0KiB time=N/A bitrate=N/A speed=N/A elapsed=0:00:10.20    \nframe=    0 fps=0.0 q=0.0 size=       0KiB time=N/A bitrate=N/A speed=N/A elapsed=0:00:10.74    \nframe=    0 fps=0.0 q=0.0 size=       0KiB time=N/A bitrate=N/A speed=N/A elapsed=0:00:11.29    \nframe=    0 fps=0.0 q=0.0 size=       0KiB time=N/A bitrate=N/A speed=N/A elapsed=0:00:11.88    \nframe=    0 fps=0.0 q=0.0 size=       0KiB time=N/A bitrate=N/A speed=N/A elapsed=0:00:12.44    \nframe=    0 fps=0.0 q=0.0 size=       0KiB time=N/A bitrate=N/A speed=N/A elapsed=0:00:13.01    \nframe=    0 fps=0.0 q=0.0 size=       0KiB time=N/A bitrate=N/A speed=N/A elapsed=0:00:13.56    \nframe=    0 fps=0.0 q=0.0 size=       0KiB time=N/A bitrate=N/A speed=N/A elapsed=0:00:14.11    \nframe=    0 fps=0.0 q=0.0 size=       0KiB time=N/A bitrate=N/A speed=N/A elapsed=0:00:14.71    \nframe=    0 fps=0.0 q=0.0 size=       0KiB time=N/A bitrate=N/A speed=N/A elapsed=0:00:15.28    \nframe=    0 fps=0.0 q=0.0 size=       0KiB time=N/A bitrate=N/A speed=N/A elapsed=0:00:15.84    \nframe=    0 fps=0.0 q=0.0 size=       0KiB time=N/A bitrate=N/A speed=N/A elapsed=0:00:16.41    \nframe=    0 fps=0.0 q=0.0 size=       0KiB time=N/A bitrate=N/A speed=N/A elapsed=0:00:16.99    \nframe=    0 fps=0.0 q=0.0 size=       0KiB time=N/A bitrate=N/A speed=N/A elapsed=0:00:17.55    \nframe=    0 fps=0.0 q=0.0 size=       0KiB time=N/A bitrate=N/A speed=N/A elapsed=0:00:18.12    \nframe=    0 fps=0.0 q=0.0 size=       0KiB time=N/A bitrate=N/A speed=N/A elapsed=0:00:18.70    \nframe=    0 fps=0.0 q=0.0 size=       0KiB time=N/A bitrate=N/A speed=N/A elapsed=0:00:19.26    \nframe=    1 fps=0.1 q=15.0 size=       1KiB time=00:00:00.00 bitrate=N/A speed=   0x elapsed=0:00:19.83    \nframe=    1 fps=0.0 q=15.0 size=       1KiB time=00:00:00.00 bitrate=N/A speed=   0x elapsed=0:00:20.38    \nframe=    1 fps=0.0 q=15.0 size=       1KiB time=00:00:00.00 bitrate=N/A speed=   0x elapsed=0:00:20.93    \nframe=    1 fps=0.0 q=15.0 size=       1KiB time=00:00:00.00 bitrate=N/A speed=   0x elapsed=0:00:21.47    \nframe=    1 fps=0.0 q=15.0 size=       1KiB time=00:00:00.00 bitrate=N/A speed=   0x elapsed=0:00:22.02    \nframe=    1 fps=0.0 q=15.0 size=       1KiB time=00:00:00.00 bitrate=N/A speed=   0x elapsed=0:00:22.56    \nframe=    1 fps=0.0 q=15.0 size=       1KiB time=00:00:00.00 bitrate=N/A speed=   0x elapsed=0:00:23.09    \nframe=    1 fps=0.0 q=15.0 size=       1KiB time=00:00:00.00 bitrate=N/A speed=   0x elapsed=0:00:23.65    \nframe=    1 fps=0.0 q=15.0 size=       1KiB time=00:00:00.00 bitrate=N/A speed=   0x elapsed=0:00:24.19    \nframe=    1 fps=0.0 q=15.0 size=       1KiB time=00:00:00.00 bitrate=N/A speed=   0x elapsed=0:00:24.73    \nframe=    1 fps=0.0 q=15.0 size=       1KiB time=00:00:00.00 bitrate=N/A speed=   0x elapsed=0:00:25.25    \nframe=    1 fps=0.0 q=15.0 size=       1KiB time=00:00:00.00 bitrate=N/A speed=   0x elapsed=0:00:25.77    \nframe=    1 fps=0.0 q=15.0 size=       1KiB time=00:00:00.00 bitrate=N/A speed=   0x elapsed=0:00:26.31    \nframe=    1 fps=0.0 q=15.0 size=       1KiB time=00:00:00.00 bitrate=N/A speed=   0x elapsed=0:00:26.87    \nframe=    1 fps=0.0 q=15.0 size=       1KiB time=00:00:00.00 bitrate=N/A speed=   0x elapsed=0:00:27.41    \nframe=    1 fps=0.0 q=15.0 size=       1KiB time=00:00:00.00 bitrate=N/A speed=   0x elapsed=0:00:27.96    \nframe=    2 fps=0.1 q=45.0 size=       1KiB time=00:00:00.00 bitrate= 537.6kbits/s speed=0.000292x elapsed=0:00:28.52    \nframe=    3 fps=0.1 q=42.0 size=       1KiB time=00:00:00.01 bitrate= 268.8kbits/s speed=0.000573x elapsed=0:00:29.09    \nframe=    3 fps=0.1 q=42.0 size=       1KiB time=00:00:00.01 bitrate= 268.8kbits/s speed=0.000562x elapsed=0:00:29.64    \nframe=    3 fps=0.1 q=42.0 size=       1KiB time=00:00:00.01 bitrate= 268.8kbits/s speed=0.000552x elapsed=0:00:30.20    \nframe=    4 fps=0.1 q=45.0 size=       1KiB time=00:00:00.02 bitrate= 179.2kbits/s speed=0.000813x elapsed=0:00:30.76    \nframe=    5 fps=0.2 q=41.0 size=       1KiB time=00:00:00.03 bitrate= 134.4kbits/s speed=0.00106x elapsed=0:00:31.34    \nframe=    5 fps=0.2 q=41.0 size=       1KiB time=00:00:00.03 bitrate= 134.4kbits/s speed=0.00104x elapsed=0:00:31.91    \nframe=    7 fps=0.2 q=42.0 size=       1KiB time=00:00:00.05 bitrate=  89.6kbits/s speed=0.00154x elapsed=0:00:32.47    \nframe=    7 fps=0.2 q=42.0 size=       1KiB time=00:00:00.05 bitrate=  89.6kbits/s speed=0.00151x elapsed=0:00:33.05    \nframe=    7 fps=0.2 q=42.0 size=       1KiB time=00:00:00.05 bitrate=  89.6kbits/s speed=0.00149x elapsed=0:00:33.62    \nframe=    8 fps=0.2 q=42.0 size=       1KiB time=00:00:00.05 bitrate=  76.8kbits/s speed=0.00171x elapsed=0:00:34.19    \nframe=    8 fps=0.2 q=42.0 size=       1KiB time=00:00:00.05 bitrate=  76.8kbits/s speed=0.00168x elapsed=0:00:34.78    \nframe=    8 fps=0.2 q=42.0 size=       1KiB time=00:00:00.05 bitrate=  76.8kbits/s speed=0.00165x elapsed=0:00:35.36    \nframe=    9 fps=0.3 q=37.0 size=       1KiB time=00:00:00.06 bitrate=  67.2kbits/s speed=0.00186x elapsed=0:00:35.91    \nframe=   10 fps=0.3 q=40.0 size=       1KiB time=00:00:00.07 bitrate=  59.7kbits/s speed=0.00206x elapsed=0:00:36.46    \nframe=   11 fps=0.3 q=41.0 size=       1KiB time=00:00:00.08 bitrate=  53.8kbits/s speed=0.00225x elapsed=0:00:37.02    \nframe=   11 fps=0.3 q=41.0 size=       1KiB time=00:00:00.08 bitrate=  53.8kbits/s speed=0.00222x elapsed=0:00:37.57    \nframe=   12 fps=0.3 q=37.0 size=       1KiB time=00:00:00.09 bitrate=  48.9kbits/s speed=0.0024x elapsed=0:00:38.13    \nframe=   12 fps=0.3 q=37.0 size=       1KiB time=00:00:00.09 bitrate=  48.9kbits/s speed=0.00237x elapsed=0:00:38.69    \nframe=   14 fps=0.4 q=39.0 size=       1KiB time=00:00:00.10 bitrate=  41.4kbits/s speed=0.00276x elapsed=0:00:39.27    \nframe=   15 fps=0.4 q=41.0 size=       1KiB time=00:00:00.11 bitrate=  38.4kbits/s speed=0.00293x elapsed=0:00:39.81    \nframe=   16 fps=0.4 q=39.0 size=       1KiB time=00:00:00.12 bitrate=  35.8kbits/s speed=0.0031x elapsed=0:00:40.35    \nframe=   17 fps=0.4 q=25.0 size=       1KiB time=00:00:00.13 bitrate=  33.6kbits/s speed=0.00326x elapsed=0:00:40.91    \nframe=   17 fps=0.4 q=25.0 size=       1KiB time=00:00:00.13 bitrate=  33.6kbits/s speed=0.00322x elapsed=0:00:41.46    \nframe=   19 fps=0.5 q=41.0 size=       1KiB time=00:00:00.15 bitrate=  29.9kbits/s speed=0.00357x elapsed=0:00:42.01    \nframe=   19 fps=0.4 q=41.0 size=       1KiB time=00:00:00.15 bitrate=  29.9kbits/s speed=0.00352x elapsed=0:00:42.56    \nframe=   19 fps=0.4 q=41.0 size=       1KiB time=00:00:00.15 bitrate=  29.9kbits/s speed=0.00348x elapsed=0:00:43.15    \nframe=   20 fps=0.5 q=38.0 size=       1KiB time=00:00:00.15 bitrate=  28.3kbits/s speed=0.00362x elapsed=0:00:43.72    \nframe=   20 fps=0.5 q=38.0 size=       1KiB time=00:00:00.15 bitrate=  28.3kbits/s speed=0.00357x elapsed=0:00:44.32    \nframe=   21 fps=0.5 q=40.0 size=       1KiB time=00:00:00.16 bitrate=  26.9kbits/s speed=0.00371x elapsed=0:00:44.89    \nframe=   21 fps=0.5 q=40.0 size=       1KiB time=00:00:00.16 bitrate=  26.9kbits/s speed=0.00367x elapsed=0:00:45.47    \nframe=   22 fps=0.5 q=37.0 size=       1KiB time=00:00:00.17 bitrate=  25.6kbits/s speed=0.0038x elapsed=0:00:46.04    \nframe=   22 fps=0.5 q=37.0 size=       1KiB time=00:00:00.17 bitrate=  25.6kbits/s speed=0.00375x elapsed=0:00:46.60    \nframe=   22 fps=0.5 q=37.0 size=       1KiB time=00:00:00.17 bitrate=  25.6kbits/s speed=0.00371x elapsed=0:00:47.17    \nframe=   22 fps=0.5 q=37.0 size=       1KiB time=00:00:00.17 bitrate=  25.6kbits/s speed=0.00367x elapsed=0:00:47.73    \nframe=   23 fps=0.5 q=41.0 size=       1KiB time=00:00:00.18 bitrate=  24.4kbits/s speed=0.0038x elapsed=0:00:48.30    \nframe=   23 fps=0.5 q=41.0 size=       1KiB time=00:00:00.18 bitrate=  24.4kbits/s speed=0.00375x elapsed=0:00:48.86    \nframe=   23 fps=0.5 q=41.0 size=       1KiB time=00:00:00.18 bitrate=  24.4kbits/s speed=0.00371x elapsed=0:00:49.45    \nframe=   24 fps=0.5 q=37.0 size=       1KiB time=00:00:00.18 bitrate=  24.4kbits/s speed=0.00366x elapsed=0:00:50.02    \nframe=   24 fps=0.5 q=37.0 size=       1KiB time=00:00:00.19 bitrate=  23.4kbits/s speed=0.00379x elapsed=0:00:50.59    \nframe=   25 fps=0.5 q=36.0 size=       1KiB time=00:00:00.20 bitrate=  22.4kbits/s speed=0.00391x elapsed=0:00:51.18    \nframe=   26 fps=0.5 q=36.0 size=       1KiB time=00:00:00.20 bitrate=  21.5kbits/s speed=0.00403x elapsed=0:00:51.74    \nframe=   26 fps=0.5 q=36.0 size=       1KiB time=00:00:00.20 bitrate=  21.5kbits/s speed=0.00398x elapsed=0:00:52.30    \nframe=   27 fps=0.5 q=41.0 size=       1KiB time=00:00:00.21 bitrate=  20.7kbits/s speed=0.0041x elapsed=0:00:52.87    \nframe=   28 fps=0.5 q=35.0 size=       1KiB time=00:00:00.21 bitrate=  20.7kbits/s speed=0.00405x elapsed=0:00:53.43    \nframe=   28 fps=0.5 q=35.0 size=       1KiB time=00:00:00.22 bitrate=  19.9kbits/s speed=0.00417x elapsed=0:00:53.99    \nframe=   30 fps=0.5 q=36.0 size=       1KiB time=00:00:00.24 bitrate=  18.5kbits/s speed=0.00443x elapsed=0:00:54.54    \nframe=   30 fps=0.5 q=36.0 size=       1KiB time=00:00:00.24 bitrate=  18.5kbits/s speed=0.00438x elapsed=0:00:55.13    \nframe=   32 fps=0.6 q=36.0 size=       1KiB time=00:00:00.25 bitrate=  17.3kbits/s speed=0.00464x elapsed=0:00:55.70    \nframe=   32 fps=0.6 q=36.0 size=       1KiB time=00:00:00.25 bitrate=  17.3kbits/s speed=0.00459x elapsed=0:00:56.27    \nframe=   32 fps=0.6 q=36.0 size=       1KiB time=00:00:00.25 bitrate=  17.3kbits/s speed=0.00454x elapsed=0:00:56.83    \nframe=   33 fps=0.6 q=20.0 size=       1KiB time=00:00:00.26 bitrate=  16.8kbits/s speed=0.00465x elapsed=0:00:57.40    \nframe=   34 fps=0.6 q=35.0 size=       1KiB time=00:00:00.27 bitrate=  16.3kbits/s speed=0.00474x elapsed=0:00:57.96    \nframe=   35 fps=0.6 q=40.0 size=       1KiB time=00:00:00.28 bitrate=  15.8kbits/s speed=0.00484x elapsed=0:00:58.52    \nframe=   35 fps=0.6 q=40.0 size=       1KiB time=00:00:00.28 bitrate=  15.8kbits/s speed=0.0048x elapsed=0:00:59.07    \nframe=   36 fps=0.6 q=35.0 size=       1KiB time=00:00:00.28 bitrate=  15.8kbits/s speed=0.00475x elapsed=0:00:59.64    \nframe=   36 fps=0.6 q=35.0 size=       1KiB time=00:00:00.29 bitrate=  15.4kbits/s speed=0.00484x elapsed=0:01:00.20    \nframe=   36 fps=0.6 q=35.0 size=       1KiB time=00:00:00.29 bitrate=  15.4kbits/s speed=0.0048x elapsed=0:01:00.80    \nframe=   37 fps=0.6 q=39.0 size=       1KiB time=00:00:00.30 bitrate=  14.9kbits/s speed=0.00489x elapsed=0:01:01.37    \nframe=   37 fps=0.6 q=39.0 size=       1KiB time=00:00:00.30 bitrate=  14.9kbits/s speed=0.00484x elapsed=0:01:01.95    \nframe=   38 fps=0.6 q=35.0 size=       1KiB time=00:00:00.30 bitrate=  14.5kbits/s speed=0.00493x elapsed=0:01:02.52    \nframe=   38 fps=0.6 q=35.0 size=       1KiB time=00:00:00.30 bitrate=  14.5kbits/s speed=0.00489x elapsed=0:01:03.09    \nframe=   38 fps=0.6 q=35.0 size=       1KiB time=00:00:00.30 bitrate=  14.5kbits/s speed=0.00485x elapsed=0:01:03.63    \nframe=   39 fps=0.6 q=38.0 size=       1KiB time=00:00:00.31 bitrate=  14.1kbits/s speed=0.00493x elapsed=0:01:04.19    \nframe=   39 fps=0.6 q=38.0 size=       1KiB time=00:00:00.31 bitrate=  14.1kbits/s speed=0.00489x elapsed=0:01:04.74    \nframe=   39 fps=0.6 q=38.0 size=       1KiB time=00:00:00.31 bitrate=  14.1kbits/s speed=0.00485x elapsed=0:01:05.31    \nframe=   40 fps=0.6 q=35.0 size=       1KiB time=00:00:00.32 bitrate=  13.8kbits/s speed=0.00493x elapsed=0:01:05.88    \nframe=   40 fps=0.6 q=35.0 size=       1KiB time=00:00:00.32 bitrate=  13.8kbits/s speed=0.00489x elapsed=0:01:06.46    \nframe=   41 fps=0.6 q=31.0 size=       1KiB time=00:00:00.33 bitrate=  13.4kbits/s speed=0.00497x elapsed=0:01:07.06    \nframe=   41 fps=0.6 q=31.0 size=       1KiB time=00:00:00.33 bitrate=  13.4kbits/s speed=0.00493x elapsed=0:01:07.64    \nframe=   42 fps=0.6 q=35.0 size=       1KiB time=00:00:00.34 bitrate=  13.1kbits/s speed=0.00501x elapsed=0:01:08.22    \nframe=   43 fps=0.6 q=40.0 size=       1KiB time=00:00:00.35 bitrate=  12.8kbits/s speed=0.00509x elapsed=0:01:08.78    \nframe=   43 fps=0.6 q=40.0 size=       1KiB time=00:00:00.35 bitrate=  12.8kbits/s speed=0.00504x elapsed=0:01:09.38    \nframe=   43 fps=0.6 q=40.0 size=       1KiB time=00:00:00.35 bitrate=  12.8kbits/s speed=0.005x elapsed=0:01:09.96    \nframe=   44 fps=0.6 q=35.0 size=       1KiB time=00:00:00.35 bitrate=  12.5kbits/s speed=0.00508x elapsed=0:01:10.55    \nframe=   44 fps=0.6 q=35.0 size=       1KiB time=00:00:00.35 bitrate=  12.5kbits/s speed=0.00504x elapsed=0:01:11.11    \nframe=   45 fps=0.6 q=37.0 size=       1KiB time=00:00:00.36 bitrate=  12.2kbits/s speed=0.00511x elapsed=0:01:11.70    \nframe=   46 fps=0.6 q=35.0 size=       1KiB time=00:00:00.37 bitrate=  11.9kbits/s speed=0.00519x elapsed=0:01:12.26    \nframe=   46 fps=0.6 q=35.0 size=       1KiB time=00:00:00.37 bitrate=  11.9kbits/s speed=0.00515x elapsed=0:01:12.82    \nframe=   48 fps=0.7 q=36.0 size=       1KiB time=00:00:00.39 bitrate=  11.4kbits/s speed=0.00534x elapsed=0:01:13.38    \nframe=   48 fps=0.6 q=36.0 size=       1KiB time=00:00:00.39 bitrate=  11.4kbits/s speed=0.0053x elapsed=0:01:13.94    \nframe=   49 fps=0.7 q=17.0 size=       1KiB time=00:00:00.40 bitrate=  11.2kbits/s speed=0.00537x elapsed=0:01:14.51    \nframe=   49 fps=0.7 q=17.0 size=       1KiB time=00:00:00.40 bitrate=  11.2kbits/s speed=0.00533x elapsed=0:01:15.09    \nframe=   50 fps=0.7 q=36.0 size=       1KiB time=00:00:00.40 bitrate=  11.0kbits/s speed=0.0054x elapsed=0:01:15.67    \nframe=   51 fps=0.7 q=39.0 size=       1KiB time=00:00:00.40 bitrate=  11.0kbits/s speed=0.00536x elapsed=0:01:16.24    \nframe=   51 fps=0.7 q=39.0 size=       1KiB time=00:00:00.41 bitrate=  10.8kbits/s speed=0.00542x elapsed=0:01:16.80    \nframe=   51 fps=0.7 q=39.0 size=       1KiB time=00:00:00.41 bitrate=  10.8kbits/s speed=0.00538x elapsed=0:01:17.38    \nframe=   52 fps=0.7 q=36.0 size=       1KiB time=00:00:00.42 bitrate=  10.5kbits/s speed=0.00545x elapsed=0:01:17.94    \nframe=   52 fps=0.7 q=36.0 size=       1KiB time=00:00:00.42 bitrate=  10.5kbits/s speed=0.00541x elapsed=0:01:18.53    \nframe=   53 fps=0.7 q=39.0 size=       1KiB time=00:00:00.43 bitrate=  10.3kbits/s speed=0.00548x elapsed=0:01:19.09    \nframe=   53 fps=0.7 q=39.0 size=       1KiB time=00:00:00.43 bitrate=  10.3kbits/s speed=0.00544x elapsed=0:01:19.63    \nframe=   53 fps=0.7 q=39.0 size=       1KiB time=00:00:00.43 bitrate=  10.3kbits/s speed=0.0054x elapsed=0:01:20.18    \nframe=   54 fps=0.7 q=36.0 size=       1KiB time=00:00:00.44 bitrate=  10.1kbits/s speed=0.00547x elapsed=0:01:20.73    \nframe=   54 fps=0.7 q=36.0 size=       1KiB time=00:00:00.44 bitrate=  10.1kbits/s speed=0.00543x elapsed=0:01:21.28    \nframe=   55 fps=0.7 q=39.0 size=       1KiB time=00:00:00.45 bitrate=  10.0kbits/s speed=0.0055x elapsed=0:01:21.83    \nframe=   55 fps=0.7 q=39.0 size=       1KiB time=00:00:00.45 bitrate=  10.0kbits/s speed=0.00546x elapsed=0:01:22.40    \nframe=   56 fps=0.7 q=36.0 size=       1KiB time=00:00:00.45 bitrate=   9.8kbits/s speed=0.00552x elapsed=0:01:22.98    \nframe=   56 fps=0.7 q=36.0 size=       1KiB time=00:00:00.45 bitrate=   9.8kbits/s speed=0.00549x elapsed=0:01:23.53    \nframe=   58 fps=0.7 q=36.0 size=       1KiB time=00:00:00.47 bitrate=   9.4kbits/s speed=0.00565x elapsed=0:01:24.08    \nframe=   58 fps=0.7 q=36.0 size=       1KiB time=00:00:00.47 bitrate=   9.4kbits/s speed=0.00561x elapsed=0:01:24.63    \nframe=   59 fps=0.7 q=39.0 size=       1KiB time=00:00:00.48 bitrate=   9.3kbits/s speed=0.00567x elapsed=0:01:25.21    \nframe=   59 fps=0.7 q=39.0 size=       1KiB time=00:00:00.48 bitrate=   9.3kbits/s speed=0.00563x elapsed=0:01:25.77    \nframe=   60 fps=0.7 q=36.0 size=       1KiB time=00:00:00.49 bitrate=   9.1kbits/s speed=0.0057x elapsed=0:01:26.32    \nframe=   60 fps=0.7 q=36.0 size=       1KiB time=00:00:00.49 bitrate=   9.1kbits/s speed=0.00566x elapsed=0:01:26.89    \nframe=   61 fps=0.7 q=37.0 size=       1KiB time=00:00:00.50 bitrate=   9.0kbits/s speed=0.00572x elapsed=0:01:27.44    \nframe=   62 fps=0.7 q=36.0 size=       1KiB time=00:00:00.50 bitrate=   8.8kbits/s speed=0.00577x elapsed=0:01:28.02    \nframe=   62 fps=0.7 q=36.0 size=       1KiB time=00:00:00.50 bitrate=   8.8kbits/s speed=0.00574x elapsed=0:01:28.60    \nframe=   63 fps=0.7 q=40.0 size=       1KiB time=00:00:00.51 bitrate=   8.7kbits/s speed=0.00579x elapsed=0:01:29.19    \nframe=   64 fps=0.7 q=36.0 size=       1KiB time=00:00:00.52 bitrate=   8.5kbits/s speed=0.00585x elapsed=0:01:29.77    \nframe=   64 fps=0.7 q=36.0 size=       1KiB time=00:00:00.52 bitrate=   8.5kbits/s speed=0.00581x elapsed=0:01:30.34    \nframe=   66 fps=0.7 q=37.0 size=       1KiB time=00:00:00.54 bitrate=   8.3kbits/s speed=0.00596x elapsed=0:01:30.91    \nframe=   66 fps=0.7 q=37.0 size=       1KiB time=00:00:00.54 bitrate=   8.3kbits/s speed=0.00592x elapsed=0:01:31.51    \nframe=   67 fps=0.7 q=40.0 size=       1KiB time=00:00:00.55 bitrate=   8.1kbits/s speed=0.00597x elapsed=0:01:32.08    \nframe=   67 fps=0.7 q=40.0 size=       1KiB time=00:00:00.55 bitrate=   8.1kbits/s speed=0.00594x elapsed=0:01:32.66    \nframe=   67 fps=0.7 q=40.0 size=       1KiB time=00:00:00.55 bitrate=   8.1kbits/s speed=0.0059x elapsed=0:01:33.25    \nframe=   67 fps=0.7 q=40.0 size=       1KiB time=00:00:00.55 bitrate=   8.1kbits/s speed=0.00586x elapsed=0:01:33.82    \nframe=   68 fps=0.7 q=37.0 size=       1KiB time=00:00:00.55 bitrate=   8.0kbits/s speed=0.00591x elapsed=0:01:34.39    \nframe=   68 fps=0.7 q=37.0 size=       1KiB time=00:00:00.55 bitrate=   8.0kbits/s speed=0.00588x elapsed=0:01:35.00    \nframe=   69 fps=0.7 q=39.0 size=       1KiB time=00:00:00.56 bitrate=   7.9kbits/s speed=0.00593x elapsed=0:01:35.56    \nframe=   69 fps=0.7 q=39.0 size=       1KiB time=00:00:00.56 bitrate=   7.9kbits/s speed=0.00589x elapsed=0:01:36.13    \nframe=   70 fps=0.7 q=37.0 size=       1KiB time=00:00:00.57 bitrate=   7.8kbits/s speed=0.00595x elapsed=0:01:36.68    \nframe=   70 fps=0.7 q=37.0 size=       1KiB time=00:00:00.57 bitrate=   7.8kbits/s speed=0.00591x elapsed=0:01:37.23    \nframe=   70 fps=0.7 q=37.0 size=       1KiB time=00:00:00.57 bitrate=   7.8kbits/s speed=0.00588x elapsed=0:01:37.79    \nframe=   71 fps=0.7 q=38.0 size=       1KiB time=00:00:00.58 bitrate=   7.7kbits/s speed=0.00593x elapsed=0:01:38.34    \nframe=   71 fps=0.7 q=38.0 size=       1KiB time=00:00:00.58 bitrate=   7.7kbits/s speed=0.0059x elapsed=0:01:38.92    \nframe=   72 fps=0.7 q=36.0 size=       1KiB time=00:00:00.59 bitrate=   7.6kbits/s speed=0.00595x elapsed=0:01:39.50    \nframe=   72 fps=0.7 q=36.0 size=       1KiB time=00:00:00.59 bitrate=   7.6kbits/s speed=0.00591x elapsed=0:01:40.07    \nframe=   72 fps=0.7 q=36.0 size=       1KiB time=00:00:00.59 bitrate=   7.6kbits/s speed=0.00588x elapsed=0:01:40.64    \nframe=   73 fps=0.7 q=27.0 size=       1KiB time=00:00:00.60 bitrate=   7.5kbits/s speed=0.00593x elapsed=0:01:41.20    \nframe=   74 fps=0.7 q=36.0 size=       1KiB time=00:00:00.60 bitrate=   7.4kbits/s speed=0.00598x elapsed=0:01:41.76    \nframe=   75 fps=0.7 q=40.0 size=       1KiB time=00:00:00.61 bitrate=   7.3kbits/s speed=0.00603x elapsed=0:01:42.34    \nframe=   75 fps=0.7 q=40.0 size=       1KiB time=00:00:00.61 bitrate=   7.3kbits/s speed=0.00599x elapsed=0:01:42.93    \nframe=   76 fps=0.7 q=35.0 size=       1KiB time=00:00:00.62 bitrate=   7.2kbits/s speed=0.00604x elapsed=0:01:43.52    \nframe=   76 fps=0.7 q=35.0 size=       1KiB time=00:00:00.62 bitrate=   7.2kbits/s speed=0.006x elapsed=0:01:44.09    \nframe=   78 fps=0.7 q=36.0 size=       1KiB time=00:00:00.64 bitrate=   7.0kbits/s speed=0.00613x elapsed=0:01:44.67    \nframe=   79 fps=0.8 q=40.0 size=       1KiB time=00:00:00.65 bitrate=   6.9kbits/s speed=0.00618x elapsed=0:01:45.22    \nframe=   80 fps=0.8 q=35.0 size=       1KiB time=00:00:00.65 bitrate=   6.8kbits/s speed=0.00622x elapsed=0:01:45.77    \nframe=   80 fps=0.8 q=35.0 size=       1KiB time=00:00:00.65 bitrate=   6.8kbits/s speed=0.00619x elapsed=0:01:46.32    \nframe=   81 fps=0.8 q=13.0 size=       1KiB time=00:00:00.66 bitrate=   6.7kbits/s speed=0.00624x elapsed=0:01:46.88    \nframe=   81 fps=0.8 q=13.0 size=       1KiB time=00:00:00.66 bitrate=   6.7kbits/s speed=0.0062x elapsed=0:01:47.45    \nframe=   81 fps=0.7 q=13.0 size=       1KiB time=00:00:00.66 bitrate=   6.7kbits/s speed=0.00617x elapsed=0:01:48.01    \nframe=   82 fps=0.8 q=35.0 size=       1KiB time=00:00:00.67 bitrate=   6.6kbits/s speed=0.00622x elapsed=0:01:48.57    \nframe=   83 fps=0.8 q=39.0 size=       1KiB time=00:00:00.68 bitrate=   6.6kbits/s speed=0.00626x elapsed=0:01:49.13    \nframe=   83 fps=0.8 q=39.0 size=       1KiB time=00:00:00.68 bitrate=   6.6kbits/s speed=0.00623x elapsed=0:01:49.72    \nframe=   84 fps=0.8 q=35.0 size=       1KiB time=00:00:00.69 bitrate=   6.5kbits/s speed=0.00627x elapsed=0:01:50.29    \nframe=   84 fps=0.8 q=35.0 size=       1KiB time=00:00:00.69 bitrate=   6.5kbits/s speed=0.00624x elapsed=0:01:50.87    \nframe=   84 fps=0.8 q=35.0 size=       1KiB time=00:00:00.69 bitrate=   6.5kbits/s speed=0.00621x elapsed=0:01:51.43    \nframe=   85 fps=0.8 q=39.0 size=       1KiB time=00:00:00.70 bitrate=   6.4kbits/s speed=0.00625x elapsed=0:01:51.98    \nframe=   85 fps=0.8 q=39.0 size=       1KiB time=00:00:00.70 bitrate=   6.4kbits/s speed=0.00622x elapsed=0:01:52.55    \nframe=   86 fps=0.8 q=35.0 size=       1KiB time=00:00:00.70 bitrate=   6.3kbits/s speed=0.00626x elapsed=0:01:53.12    \nframe=   86 fps=0.8 q=35.0 size=       1KiB time=00:00:00.70 bitrate=   6.3kbits/s speed=0.00623x elapsed=0:01:53.70    \nframe=   86 fps=0.8 q=35.0 size=       1KiB time=00:00:00.70 bitrate=   6.3kbits/s speed=0.0062x elapsed=0:01:54.26    \nframe=   87 fps=0.8 q=39.0 size=       1KiB time=00:00:00.71 bitrate=   6.3kbits/s speed=0.00624x elapsed=0:01:54.83    \nframe=   87 fps=0.8 q=39.0 size=       1KiB time=00:00:00.71 bitrate=   6.3kbits/s speed=0.00621x elapsed=0:01:55.42    \nframe=   87 fps=0.7 q=39.0 size=       1KiB time=00:00:00.71 bitrate=   6.3kbits/s speed=0.00618x elapsed=0:01:56.00    \nframe=   88 fps=0.8 q=35.0 size=       1KiB time=00:00:00.72 bitrate=   6.2kbits/s speed=0.00622x elapsed=0:01:56.56    \nframe=   88 fps=0.8 q=35.0 size=       1KiB time=00:00:00.72 bitrate=   6.2kbits/s speed=0.00619x elapsed=0:01:57.12    \nframe=   89 fps=0.8 q=26.0 size=       1KiB time=00:00:00.73 bitrate=   6.1kbits/s speed=0.00623x elapsed=0:01:57.69    \nframe=   90 fps=0.8 q=36.0 size=       1KiB time=00:00:00.74 bitrate=   6.0kbits/s speed=0.00627x elapsed=0:01:58.26    \nframe=   90 fps=0.8 q=36.0 size=       1KiB time=00:00:00.74 bitrate=   6.0kbits/s speed=0.00624x elapsed=0:01:58.81    \nframe=   91 fps=0.8 q=39.0 size=       1KiB time=00:00:00.75 bitrate=   6.0kbits/s speed=0.00628x elapsed=0:01:59.38    \nframe=   91 fps=0.8 q=39.0 size=       1KiB time=00:00:00.75 bitrate=   6.0kbits/s speed=0.00625x elapsed=0:01:59.95    \nframe=   92 fps=0.8 q=36.0 size=       1KiB time=00:00:00.75 bitrate=   5.9kbits/s speed=0.00629x elapsed=0:02:00.53    \nframe=   92 fps=0.8 q=36.0 size=       1KiB time=00:00:00.75 bitrate=   5.9kbits/s speed=0.00626x elapsed=0:02:01.12    \nframe=   93 fps=0.8 q=38.0 size=       1KiB time=00:00:00.76 bitrate=   5.8kbits/s speed=0.0063x elapsed=0:02:01.69    \nframe=   94 fps=0.8 q=37.0 size=       1KiB time=00:00:00.77 bitrate=   5.8kbits/s speed=0.00634x elapsed=0:02:02.25    \nframe=   95 fps=0.8 q=40.0 size=       1KiB time=00:00:00.78 bitrate=   5.7kbits/s speed=0.00638x elapsed=0:02:02.84    \nframe=   96 fps=0.8 q=37.0 size=       1KiB time=00:00:00.79 bitrate=   5.7kbits/s speed=0.00641x elapsed=0:02:03.44    \nframe=   96 fps=0.8 q=37.0 size=       1KiB time=00:00:00.79 bitrate=   5.7kbits/s speed=0.00638x elapsed=0:02:04.03    \nframe=   96 fps=0.8 q=37.0 size=       1KiB time=00:00:00.79 bitrate=   5.7kbits/s speed=0.00635x elapsed=0:02:04.60    \nframe=   97 fps=0.8 q=13.0 size=       1KiB time=00:00:00.80 bitrate=   5.6kbits/s speed=0.00639x elapsed=0:02:05.19    \nframe=   97 fps=0.8 q=13.0 size=       1KiB time=00:00:00.80 bitrate=   5.6kbits/s speed=0.00636x elapsed=0:02:05.77    \nframe=   97 fps=0.8 q=13.0 size=       1KiB time=00:00:00.80 bitrate=   5.6kbits/s speed=0.00633x elapsed=0:02:06.34    \nframe=   99 fps=0.8 q=40.0 size=       1KiB time=00:00:00.81 bitrate=   5.5kbits/s speed=0.00643x elapsed=0:02:06.91    \nframe=   99 fps=0.8 q=40.0 size=       1KiB time=00:00:00.81 bitrate=   5.5kbits/s speed=0.0064x elapsed=0:02:07.50    \nframe=   99 fps=0.8 q=40.0 size=       1KiB time=00:00:00.81 bitrate=   5.5kbits/s speed=0.00638x elapsed=0:02:08.07    \nframe=   99 fps=0.8 q=40.0 size=       1KiB time=00:00:00.81 bitrate=   5.5kbits/s speed=0.00635x elapsed=0:02:08.63    \nframe=  100 fps=0.8 q=36.0 size=       1KiB time=00:00:00.82 bitrate=   5.4kbits/s speed=0.00639x elapsed=0:02:09.18    \nframe=  100 fps=0.8 q=36.0 size=       1KiB time=00:00:00.82 bitrate=   5.4kbits/s speed=0.00636x elapsed=0:02:09.76    \nframe=  101 fps=0.8 q=39.0 size=       1KiB time=00:00:00.82 bitrate=   5.4kbits/s speed=0.00633x elapsed=0:02:10.32    \nframe=  101 fps=0.8 q=39.0 size=       1KiB time=00:00:00.83 bitrate=   5.4kbits/s speed=0.00637x elapsed=0:02:10.86    \nframe=  102 fps=0.8 q=37.0 size=       1KiB time=00:00:00.84 bitrate=   5.3kbits/s speed=0.0064x elapsed=0:02:11.41    \nframe=  102 fps=0.8 q=37.0 size=       1KiB time=00:00:00.84 bitrate=   5.3kbits/s speed=0.00638x elapsed=0:02:11.96    \nframe=  102 fps=0.8 q=37.0 size=       1KiB time=00:00:00.84 bitrate=   5.3kbits/s speed=0.00635x elapsed=0:02:12.51    \nframe=  103 fps=0.8 q=40.0 size=       1KiB time=00:00:00.85 bitrate=   5.3kbits/s speed=0.00639x elapsed=0:02:13.06    \nframe=  103 fps=0.8 q=40.0 size=       1KiB time=00:00:00.85 bitrate=   5.3kbits/s speed=0.00636x elapsed=0:02:13.63    \nframe=  104 fps=0.8 q=37.0 size=       1KiB time=00:00:00.85 bitrate=   5.2kbits/s speed=0.0064x elapsed=0:02:14.18    \nframe=  104 fps=0.8 q=37.0 size=       1KiB time=00:00:00.85 bitrate=   5.2kbits/s speed=0.00637x elapsed=0:02:14.73    \nframe=  105 fps=0.8 q=26.0 size=       1KiB time=00:00:00.86 bitrate=   5.2kbits/s speed=0.00641x elapsed=0:02:15.28    \nframe=  106 fps=0.8 q=37.0 size=       1KiB time=00:00:00.87 bitrate=   5.1kbits/s speed=0.00644x elapsed=0:02:15.87    \nframe=  106 fps=0.8 q=37.0 size=       1KiB time=00:00:00.87 bitrate=   5.1kbits/s speed=0.00641x elapsed=0:02:16.44    \nframe=  107 fps=0.8 q=41.0 size=       1KiB time=00:00:00.88 bitrate=   5.1kbits/s speed=0.00645x elapsed=0:02:17.03    \nframe=  107 fps=0.8 q=41.0 size=       1KiB time=00:00:00.88 bitrate=   5.1kbits/s speed=0.00642x elapsed=0:02:17.60    \nframe=  107 fps=0.8 q=41.0 size=       1KiB time=00:00:00.88 bitrate=   5.1kbits/s speed=0.00639x elapsed=0:02:18.18    \nframe=  108 fps=0.8 q=37.0 size=       1KiB time=00:00:00.89 bitrate=   5.0kbits/s speed=0.00643x elapsed=0:02:18.75    \nframe=  108 fps=0.8 q=37.0 size=       1KiB time=00:00:00.89 bitrate=   5.0kbits/s speed=0.0064x elapsed=0:02:19.32    \nframe=  110 fps=0.8 q=38.0 size=       1KiB time=00:00:00.90 bitrate=   4.9kbits/s speed=0.00649x elapsed=0:02:19.89    \nframe=  111 fps=0.8 q=41.0 size=       1KiB time=00:00:00.91 bitrate=   4.9kbits/s speed=0.00653x elapsed=0:02:20.44    \nframe=  113 fps=0.8 q=13.0 size=       1KiB time=00:00:00.93 bitrate=   4.8kbits/s speed=0.00662x elapsed=0:02:20.99    \nframe=  113 fps=0.8 q=13.0 size=       1KiB time=00:00:00.93 bitrate=   4.8kbits/s speed=0.00659x elapsed=0:02:21.57    \nframe=  114 fps=0.8 q=38.0 size=       1KiB time=00:00:00.94 bitrate=   4.8kbits/s speed=0.00663x elapsed=0:02:22.12    \nframe=  114 fps=0.8 q=38.0 size=       1KiB time=00:00:00.94 bitrate=   4.8kbits/s speed=0.0066x elapsed=0:02:22.70    \nframe=  115 fps=0.8 q=41.0 size=       1KiB time=00:00:00.95 bitrate=   4.7kbits/s speed=0.00663x elapsed=0:02:23.27    \nframe=  115 fps=0.8 q=41.0 size=       1KiB time=00:00:00.95 bitrate=   4.7kbits/s speed=0.00661x elapsed=0:02:23.82    \nframe=  115 fps=0.8 q=41.0 size=       1KiB time=00:00:00.95 bitrate=   4.7kbits/s speed=0.00658x elapsed=0:02:24.36    \nframe=  116 fps=0.8 q=37.0 size=       1KiB time=00:00:00.95 bitrate=   4.7kbits/s speed=0.00661x elapsed=0:02:24.91    \nframe=  116 fps=0.8 q=37.0 size=       1KiB time=00:00:00.95 bitrate=   4.7kbits/s speed=0.00659x elapsed=0:02:25.46    \nframe=  117 fps=0.8 q=40.0 size=       1KiB time=00:00:00.96 bitrate=   4.6kbits/s speed=0.00662x elapsed=0:02:26.02    \nframe=  117 fps=0.8 q=40.0 size=       1KiB time=00:00:00.96 bitrate=   4.6kbits/s speed=0.00659x elapsed=0:02:26.58    \nframe=  118 fps=0.8 q=38.0 size=       1KiB time=00:00:00.97 bitrate=   4.6kbits/s speed=0.00663x elapsed=0:02:27.15    \nframe=  118 fps=0.8 q=38.0 size=       1KiB time=00:00:00.97 bitrate=   4.6kbits/s speed=0.0066x elapsed=0:02:27.73    \nframe=  118 fps=0.8 q=38.0 size=       1KiB time=00:00:00.97 bitrate=   4.6kbits/s speed=0.00657x elapsed=0:02:28.29    \nframe=  118 fps=0.8 q=38.0 size=       1KiB time=00:00:00.97 bitrate=   4.6kbits/s speed=0.00655x elapsed=0:02:28.86    \nframe=  118 fps=0.8 q=38.0 size=       1KiB time=00:00:00.97 bitrate=   4.6kbits/s speed=0.00652x elapsed=0:02:29.45    \nframe=  119 fps=0.8 q=40.0 size=       1KiB time=00:00:00.98 bitrate=   4.6kbits/s speed=0.00655x elapsed=0:02:30.01    \nframe=  119 fps=0.8 q=40.0 size=       1KiB time=00:00:00.98 bitrate=   4.6kbits/s speed=0.00653x elapsed=0:02:30.58    \nframe=  120 fps=0.8 q=38.0 size=       1KiB time=00:00:00.99 bitrate=   4.5kbits/s speed=0.00656x elapsed=0:02:31.12    \nframe=  120 fps=0.8 q=38.0 size=       1KiB time=00:00:00.99 bitrate=   4.5kbits/s speed=0.00654x elapsed=0:02:31.68    \nframe=  121 fps=0.8 q=27.0 size=       1KiB time=00:00:01.00 bitrate=   4.5kbits/s speed=0.00657x elapsed=0:02:32.22    \nframe=  122 fps=0.8 q=38.0 size=       1KiB time=00:00:01.00 bitrate=   4.4kbits/s speed=0.0066x elapsed=0:02:32.79    \nframe=  123 fps=0.8 q=42.0 size=       1KiB time=00:00:01.01 bitrate=   4.4kbits/s speed=0.00663x elapsed=0:02:33.34    \nframe=  123 fps=0.8 q=42.0 size=       1KiB time=00:00:01.01 bitrate=   4.4kbits/s speed=0.00661x elapsed=0:02:33.88    \nframe=  124 fps=0.8 q=38.0 size=       1KiB time=00:00:01.02 bitrate=   4.4kbits/s speed=0.00664x elapsed=0:02:34.43    \nframe=  124 fps=0.8 q=38.0 size=       1KiB time=00:00:01.02 bitrate=   4.4kbits/s speed=0.00661x elapsed=0:02:34.99    \nframe=  126 fps=0.8 q=38.0 size=       1KiB time=00:00:01.03 bitrate=   4.3kbits/s speed=0.00664x elapsed=0:02:35.57    \nframe=  126 fps=0.8 q=38.0 size=       1KiB time=00:00:01.04 bitrate=   4.3kbits/s speed=0.00667x elapsed=0:02:36.15    \nframe=  128 fps=0.8 q=38.0 size=       1KiB time=00:00:01.05 bitrate=   4.2kbits/s speed=0.00675x elapsed=0:02:36.71    \nframe=  128 fps=0.8 q=38.0 size=       1KiB time=00:00:01.05 bitrate=   4.2kbits/s speed=0.00673x elapsed=0:02:37.27    \nframe=  129 fps=0.8 q=14.0 size=       1KiB time=00:00:01.06 bitrate=   4.2kbits/s speed=0.00676x elapsed=0:02:37.86    \nframe=  129 fps=0.8 q=14.0 size=       1KiB time=00:00:01.06 bitrate=   4.2kbits/s speed=0.00673x elapsed=0:02:38.41    \nframe=  131 fps=0.8 q=41.0 size=       1KiB time=00:00:01.08 bitrate=   4.1kbits/s speed=0.00681x elapsed=0:02:38.96    \nframe=  131 fps=0.8 q=41.0 size=       1KiB time=00:00:01.08 bitrate=   4.1kbits/s speed=0.00679x elapsed=0:02:39.52    \nframe=  132 fps=0.8 q=39.0 size=       1KiB time=00:00:01.09 bitrate=   4.1kbits/s speed=0.00682x elapsed=0:02:40.08    \nframe=  132 fps=0.8 q=39.0 size=       1KiB time=00:00:01.09 bitrate=   4.1kbits/s speed=0.00679x elapsed=0:02:40.66    \nframe=  132 fps=0.8 q=39.0 size=       1KiB time=00:00:01.09 bitrate=   4.1kbits/s speed=0.00677x elapsed=0:02:41.24    \nframe=  133 fps=0.8 q=40.0 size=       1KiB time=00:00:01.10 bitrate=   4.1kbits/s speed=0.0068x elapsed=0:02:41.81    \nframe=  133 fps=0.8 q=40.0 size=       1KiB time=00:00:01.10 bitrate=   4.1kbits/s speed=0.00677x elapsed=0:02:42.37    \nframe=  134 fps=0.8 q=39.0 size=       1KiB time=00:00:01.10 bitrate=   4.0kbits/s speed=0.0068x elapsed=0:02:42.93    \nframe=  134 fps=0.8 q=39.0 size=       1KiB time=00:00:01.10 bitrate=   4.0kbits/s speed=0.00678x elapsed=0:02:43.49    \nframe=  135 fps=0.8 q=40.0 size=       1KiB time=00:00:01.11 bitrate=   4.0kbits/s speed=0.00681x elapsed=0:02:44.03    \nframe=  135 fps=0.8 q=40.0 size=       1KiB time=00:00:01.11 bitrate=   4.0kbits/s speed=0.00678x elapsed=0:02:44.59    \nframe=  135 fps=0.8 q=40.0 size=       1KiB time=00:00:01.11 bitrate=   4.0kbits/s speed=0.00676x elapsed=0:02:45.18    \nframe=  136 fps=0.8 q=39.0 size=       1KiB time=00:00:01.12 bitrate=   4.0kbits/s speed=0.00679x elapsed=0:02:45.76    \nframe=  137 fps=0.8 q=27.0 size=       1KiB time=00:00:01.13 bitrate=   4.0kbits/s speed=0.00682x elapsed=0:02:46.29    \nframe=  138 fps=0.8 q=39.0 size=       1KiB time=00:00:01.14 bitrate=   3.9kbits/s speed=0.00684x elapsed=0:02:46.85    \nframe=  139 fps=0.8 q=41.0 size=       1KiB time=00:00:01.15 bitrate=   3.9kbits/s speed=0.00687x elapsed=0:02:47.44    \nframe=  139 fps=0.8 q=41.0 size=       1KiB time=00:00:01.15 bitrate=   3.9kbits/s speed=0.00685x elapsed=0:02:48.00    \nframe=  139 fps=0.8 q=41.0 size=       1KiB time=00:00:01.15 bitrate=   3.9kbits/s speed=0.00682x elapsed=0:02:48.54    \nframe=  140 fps=0.8 q=39.0 size=       1KiB time=00:00:01.15 bitrate=   3.9kbits/s speed=0.00685x elapsed=0:02:49.14    \nframe=  140 fps=0.8 q=39.0 size=       1KiB time=00:00:01.15 bitrate=   3.9kbits/s speed=0.00682x elapsed=0:02:49.73    \nframe=  141 fps=0.8 q=39.0 size=       1KiB time=00:00:01.16 bitrate=   3.8kbits/s speed=0.00685x elapsed=0:02:50.30    \nframe=  143 fps=0.8 q=41.0 size=       1KiB time=00:00:01.18 bitrate=   3.8kbits/s speed=0.00692x elapsed=0:02:50.88    \nframe=  143 fps=0.8 q=41.0 size=       1KiB time=00:00:01.18 bitrate=   3.8kbits/s speed=0.0069x elapsed=0:02:51.44    \nframe=  143 fps=0.8 q=41.0 size=       1KiB time=00:00:01.18 bitrate=   3.8kbits/s speed=0.00688x elapsed=0:02:52.04    \nframe=  143 fps=0.8 q=41.0 size=       1KiB time=00:00:01.18 bitrate=   3.8kbits/s speed=0.00685x elapsed=0:02:52.62    \nframe=  145 fps=0.8 q=17.0 size=       1KiB time=00:00:01.20 bitrate=   3.7kbits/s speed=0.00693x elapsed=0:02:53.20    \nframe=  146 fps=0.8 q=40.0 size=       1KiB time=00:00:01.20 bitrate=   3.7kbits/s speed=0.00695x elapsed=0:02:53.76    \nframe=  146 fps=0.8 q=40.0 size=       1KiB time=00:00:01.20 bitrate=   3.7kbits/s speed=0.00693x elapsed=0:02:54.33    \nframe=  147 fps=0.8 q=41.0 size=       1KiB time=00:00:01.21 bitrate=   3.7kbits/s speed=0.00696x elapsed=0:02:54.89    \nframe=  147 fps=0.8 q=41.0 size=       1KiB time=00:00:01.21 bitrate=   3.7kbits/s speed=0.00693x elapsed=0:02:55.47    \nframe=  147 fps=0.8 q=41.0 size=       1KiB time=00:00:01.21 bitrate=   3.7kbits/s speed=0.00691x elapsed=0:02:56.01    \nframe=  148 fps=0.8 q=37.0 size=       1KiB time=00:00:01.22 bitrate=   3.7kbits/s speed=0.00694x elapsed=0:02:56.59    \nframe=  148 fps=0.8 q=37.0 size=       1KiB time=00:00:01.22 bitrate=   3.7kbits/s speed=0.00691x elapsed=0:02:57.16    \nframe=  149 fps=0.8 q=40.0 size=       1KiB time=00:00:01.23 bitrate=   3.6kbits/s speed=0.00694x elapsed=0:02:57.78    \nframe=  149 fps=0.8 q=40.0 size=       1KiB time=00:00:01.23 bitrate=   3.6kbits/s speed=0.00691x elapsed=0:02:58.37    \nframe=  149 fps=0.8 q=40.0 size=       1KiB time=00:00:01.23 bitrate=   3.6kbits/s speed=0.00689x elapsed=0:02:58.95    \nframe=  150 fps=0.8 q=40.0 size=       1KiB time=00:00:01.24 bitrate=   3.6kbits/s speed=0.00692x elapsed=0:02:59.53    \nframe=  150 fps=0.8 q=40.0 size=       1KiB time=00:00:01.24 bitrate=   3.6kbits/s speed=0.00689x elapsed=0:03:00.11    \nframe=  150 fps=0.8 q=40.0 size=       1KiB time=00:00:01.24 bitrate=   3.6kbits/s speed=0.00687x elapsed=0:03:00.70    \nframe=  151 fps=0.8 q=40.0 size=       1KiB time=00:00:01.25 bitrate=   3.6kbits/s speed=0.0069x elapsed=0:03:01.27    \nframe=  151 fps=0.8 q=40.0 size=       1KiB time=00:00:01.25 bitrate=   3.6kbits/s speed=0.00687x elapsed=0:03:01.83    \nframe=  151 fps=0.8 q=40.0 size=       1KiB time=00:00:01.25 bitrate=   3.6kbits/s speed=0.00685x elapsed=0:03:02.37    \nframe=  152 fps=0.8 q=40.0 size=       1KiB time=00:00:01.25 bitrate=   3.6kbits/s speed=0.00688x elapsed=0:03:02.92    \nframe=  154 fps=0.8 q=41.0 size=       1KiB time=00:00:01.27 bitrate=   3.5kbits/s speed=0.00695x elapsed=0:03:03.47    \nframe=  154 fps=0.8 q=41.0 size=       1KiB time=00:00:01.27 bitrate=   3.5kbits/s speed=0.00693x elapsed=0:03:04.02    \nframe=  155 fps=0.8 q=41.0 size=       1KiB time=00:00:01.28 bitrate=   3.5kbits/s speed=0.00695x elapsed=0:03:04.57    \nframe=  155 fps=0.8 q=41.0 size=       1KiB time=00:00:01.28 bitrate=   3.5kbits/s speed=0.00693x elapsed=0:03:05.14    \nframe=  155 fps=0.8 q=41.0 size=       1KiB time=00:00:01.28 bitrate=   3.5kbits/s speed=0.00691x elapsed=0:03:05.75    \nframe=  156 fps=0.8 q=41.0 size=       1KiB time=00:00:01.29 bitrate=   3.5kbits/s speed=0.00693x elapsed=0:03:06.32    \nframe=  156 fps=0.8 q=41.0 size=       1KiB time=00:00:01.29 bitrate=   3.5kbits/s speed=0.00691x elapsed=0:03:06.88    \nframe=  157 fps=0.8 q=39.0 size=       1KiB time=00:00:01.30 bitrate=   3.4kbits/s speed=0.00693x elapsed=0:03:07.45    \nframe=  159 fps=0.8 q=41.0 size=       1KiB time=00:00:01.31 bitrate=   3.4kbits/s speed=0.007x elapsed=0:03:08.02    \nframe=  160 fps=0.8 q=41.0 size=       1KiB time=00:00:01.32 bitrate=   3.4kbits/s speed=0.00703x elapsed=0:03:08.57    \nframe=  161 fps=0.9 q=19.0 size=       1KiB time=00:00:01.33 bitrate=   3.4kbits/s speed=0.00705x elapsed=0:03:09.13    \nframe=  162 fps=0.9 q=42.0 size=       1KiB time=00:00:01.34 bitrate=   3.3kbits/s speed=0.00707x elapsed=0:03:09.68    \nframe=  162 fps=0.9 q=42.0 size=       1KiB time=00:00:01.34 bitrate=   3.3kbits/s speed=0.00705x elapsed=0:03:10.24    \nframe=  162 fps=0.8 q=42.0 size=       1KiB time=00:00:01.34 bitrate=   3.3kbits/s speed=0.00703x elapsed=0:03:10.81    \nframe=  163 fps=0.9 q=42.0 size=       1KiB time=00:00:01.35 bitrate=   3.3kbits/s speed=0.00705x elapsed=0:03:11.37    \nframe=  163 fps=0.8 q=42.0 size=       1KiB time=00:00:01.35 bitrate=   3.3kbits/s speed=0.00703x elapsed=0:03:11.92    \nframe=  163 fps=0.8 q=42.0 size=       1KiB time=00:00:01.35 bitrate=   3.3kbits/s speed=0.00701x elapsed=0:03:12.49    \nframe=  164 fps=0.8 q=42.0 size=       1KiB time=00:00:01.35 bitrate=   3.3kbits/s speed=0.00704x elapsed=0:03:13.04    \nframe=  165 fps=0.9 q=40.0 size=       1KiB time=00:00:01.35 bitrate=   3.3kbits/s speed=0.00702x elapsed=0:03:13.59    \nframe=  165 fps=0.8 q=40.0 size=       1KiB time=00:00:01.36 bitrate=   3.3kbits/s speed=0.00704x elapsed=0:03:14.15    \nframe=  166 fps=0.9 q=41.0 size=       1KiB time=00:00:01.37 bitrate=   3.3kbits/s speed=0.00706x elapsed=0:03:14.70    \nframe=  166 fps=0.9 q=41.0 size=       1KiB time=00:00:01.37 bitrate=   3.3kbits/s speed=0.00704x elapsed=0:03:15.28    \nframe=  166 fps=0.8 q=41.0 size=       1KiB time=00:00:01.37 bitrate=   3.3kbits/s speed=0.00702x elapsed=0:03:15.89    \nframe=  166 fps=0.8 q=41.0 size=       1KiB time=00:00:01.37 bitrate=   3.3kbits/s speed=0.007x elapsed=0:03:16.47    \nframe=  167 fps=0.8 q=40.0 size=       1KiB time=00:00:01.38 bitrate=   3.2kbits/s speed=0.00702x elapsed=0:03:17.03    \nframe=  167 fps=0.8 q=40.0 size=       1KiB time=00:00:01.38 bitrate=   3.2kbits/s speed=0.007x elapsed=0:03:17.61    \nframe=  168 fps=0.8 q=41.0 size=       1KiB time=00:00:01.38 bitrate=   3.2kbits/s speed=0.00698x elapsed=0:03:18.18    \nframe=  168 fps=0.8 q=41.0 size=       1KiB time=00:00:01.39 bitrate=   3.2kbits/s speed=0.007x elapsed=0:03:18.77    \nframe=  170 fps=0.9 q=42.0 size=       1KiB time=00:00:01.40 bitrate=   3.2kbits/s speed=0.00707x elapsed=0:03:19.33    \nframe=  171 fps=0.9 q=42.0 size=       1KiB time=00:00:01.41 bitrate=   3.2kbits/s speed=0.00709x elapsed=0:03:19.86    \nframe=  172 fps=0.9 q=42.0 size=       1KiB time=00:00:01.42 bitrate=   3.1kbits/s speed=0.00711x elapsed=0:03:20.42    \nframe=  172 fps=0.9 q=42.0 size=       1KiB time=00:00:01.42 bitrate=   3.1kbits/s speed=0.00709x elapsed=0:03:21.01    \nframe=  173 fps=0.9 q=39.0 size=       1KiB time=00:00:01.43 bitrate=   3.1kbits/s speed=0.00711x elapsed=0:03:21.59    \nframe=  174 fps=0.9 q=41.0 size=       1KiB time=00:00:01.44 bitrate=   3.1kbits/s speed=0.00713x elapsed=0:03:22.18    \nframe=  176 fps=0.9 q=41.0 size=       1KiB time=00:00:01.45 bitrate=   3.1kbits/s speed=0.00719x elapsed=0:03:22.76    \nframe=  176 fps=0.9 q=41.0 size=       1KiB time=00:00:01.45 bitrate=   3.1kbits/s speed=0.00717x elapsed=0:03:23.35    \nframe=  177 fps=0.9 q=20.0 size=       1KiB time=00:00:01.45 bitrate=   3.1kbits/s speed=0.00715x elapsed=0:03:23.95    \nframe=  177 fps=0.9 q=20.0 size=       1KiB time=00:00:01.46 bitrate=   3.1kbits/s speed=0.00717x elapsed=0:03:24.54    \nframe=  177 fps=0.9 q=20.0 size=       1KiB time=00:00:01.46 bitrate=   3.1kbits/s speed=0.00715x elapsed=0:03:25.12    \nframe=  179 fps=0.9 q=42.0 size=       1KiB time=00:00:01.48 bitrate=   3.0kbits/s speed=0.00721x elapsed=0:03:25.68    \nframe=  179 fps=0.9 q=42.0 size=       1KiB time=00:00:01.48 bitrate=   3.0kbits/s speed=0.00719x elapsed=0:03:26.25    \nframe=  179 fps=0.9 q=42.0 size=       1KiB time=00:00:01.48 bitrate=   3.0kbits/s speed=0.00717x elapsed=0:03:26.81    \nframe=  180 fps=0.9 q=42.0 size=       1KiB time=00:00:01.49 bitrate=   3.0kbits/s speed=0.00719x elapsed=0:03:27.36    \nframe=  181 fps=0.9 q=40.0 size=       1KiB time=00:00:01.50 bitrate=   3.0kbits/s speed=0.00721x elapsed=0:03:27.90    \nframe=  181 fps=0.9 q=40.0 size=       1KiB time=00:00:01.50 bitrate=   3.0kbits/s speed=0.0072x elapsed=0:03:28.47    \nframe=  182 fps=0.9 q=41.0 size=       1KiB time=00:00:01.50 bitrate=   3.0kbits/s speed=0.00722x elapsed=0:03:29.02    \nframe=  182 fps=0.9 q=41.0 size=       1KiB time=00:00:01.50 bitrate=   3.0kbits/s speed=0.0072x elapsed=0:03:29.60    \nframe=  182 fps=0.9 q=41.0 size=       1KiB time=00:00:01.50 bitrate=   3.0kbits/s speed=0.00718x elapsed=0:03:30.18    \nframe=  182 fps=0.9 q=41.0 size=       1KiB time=00:00:01.50 bitrate=   3.0kbits/s speed=0.00716x elapsed=0:03:30.74    \nframe=  183 fps=0.9 q=40.0 size=       1KiB time=00:00:01.51 bitrate=   3.0kbits/s speed=0.00718x elapsed=0:03:31.32    \nframe=  183 fps=0.9 q=40.0 size=       1KiB time=00:00:01.51 bitrate=   3.0kbits/s speed=0.00716x elapsed=0:03:31.90    \nframe=  184 fps=0.9 q=41.0 size=       1KiB time=00:00:01.52 bitrate=   2.9kbits/s speed=0.00718x elapsed=0:03:32.46    \nframe=  186 fps=0.9 q=42.0 size=       1KiB time=00:00:01.54 bitrate=   2.9kbits/s speed=0.00724x elapsed=0:03:33.02    \nframe=  187 fps=0.9 q=42.0 size=       1KiB time=00:00:01.55 bitrate=   2.9kbits/s speed=0.00726x elapsed=0:03:33.56    \nframe=  187 fps=0.9 q=42.0 size=       1KiB time=00:00:01.55 bitrate=   2.9kbits/s speed=0.00724x elapsed=0:03:34.09    \nframe=  187 fps=0.9 q=42.0 size=       1KiB time=00:00:01.55 bitrate=   2.9kbits/s speed=0.00722x elapsed=0:03:34.65    \nframe=  188 fps=0.9 q=42.0 size=       1KiB time=00:00:01.55 bitrate=   2.9kbits/s speed=0.00724x elapsed=0:03:35.21    \nframe=  189 fps=0.9 q=39.0 size=       1KiB time=00:00:01.56 bitrate=   2.9kbits/s speed=0.00726x elapsed=0:03:35.78    \nframe=  190 fps=0.9 q=42.0 size=       1KiB time=00:00:01.57 bitrate=   2.8kbits/s speed=0.00728x elapsed=0:03:36.35    \nframe=  191 fps=0.9 q=41.0 size=       1KiB time=00:00:01.58 bitrate=   2.8kbits/s speed=0.0073x elapsed=0:03:36.91    \nframe=  191 fps=0.9 q=41.0 size=       1KiB time=00:00:01.58 bitrate=   2.8kbits/s speed=0.00728x elapsed=0:03:37.48    \nframe=  192 fps=0.9 q=42.0 size=       1KiB time=00:00:01.59 bitrate=   2.8kbits/s speed=0.0073x elapsed=0:03:38.03    \nframe=  192 fps=0.9 q=42.0 size=       1KiB time=00:00:01.59 bitrate=   2.8kbits/s speed=0.00728x elapsed=0:03:38.57    \nframe=  193 fps=0.9 q=22.0 size=       1KiB time=00:00:01.60 bitrate=   2.8kbits/s speed=0.0073x elapsed=0:03:39.09    \nframe=  194 fps=0.9 q=42.0 size=       1KiB time=00:00:01.60 bitrate=   2.8kbits/s speed=0.00732x elapsed=0:03:39.62    \nframe=  194 fps=0.9 q=42.0 size=       1KiB time=00:00:01.60 bitrate=   2.8kbits/s speed=0.0073x elapsed=0:03:40.18    \nframe=  194 fps=0.9 q=42.0 size=       1KiB time=00:00:01.60 bitrate=   2.8kbits/s speed=0.00729x elapsed=0:03:40.69    \nframe=  195 fps=0.9 q=42.0 size=       1KiB time=00:00:01.61 bitrate=   2.8kbits/s speed=0.00731x elapsed=0:03:41.23    \nframe=  195 fps=0.9 q=42.0 size=       1KiB time=00:00:01.61 bitrate=   2.8kbits/s speed=0.00729x elapsed=0:03:41.75    \nframe=  195 fps=0.9 q=42.0 size=       1KiB time=00:00:01.61 bitrate=   2.8kbits/s speed=0.00727x elapsed=0:03:42.31    \nframe=  196 fps=0.9 q=38.0 size=       1KiB time=00:00:01.62 bitrate=   2.8kbits/s speed=0.00729x elapsed=0:03:42.86    \nframe=  196 fps=0.9 q=38.0 size=       1KiB time=00:00:01.62 bitrate=   2.8kbits/s speed=0.00727x elapsed=0:03:43.39    \nframe=  197 fps=0.9 q=40.0 size=       1KiB time=00:00:01.63 bitrate=   2.7kbits/s speed=0.00729x elapsed=0:03:43.95    \nframe=  197 fps=0.9 q=40.0 size=       1KiB time=00:00:01.63 bitrate=   2.7kbits/s speed=0.00727x elapsed=0:03:44.55    \nframe=  198 fps=0.9 q=41.0 size=       1KiB time=00:00:01.63 bitrate=   2.7kbits/s speed=0.00725x elapsed=0:03:45.15    \nframe=  198 fps=0.9 q=41.0 size=       1KiB time=00:00:01.64 bitrate=   2.7kbits/s speed=0.00727x elapsed=0:03:45.74    \nframe=  198 fps=0.9 q=41.0 size=       1KiB time=00:00:01.64 bitrate=   2.7kbits/s speed=0.00725x elapsed=0:03:46.34    \nframe=  198 fps=0.9 q=41.0 size=       1KiB time=00:00:01.64 bitrate=   2.7kbits/s speed=0.00723x elapsed=0:03:46.92    \nframe=  199 fps=0.9 q=40.0 size=       1KiB time=00:00:01.64 bitrate=   2.7kbits/s speed=0.00722x elapsed=0:03:47.51    \nframe=  199 fps=0.9 q=40.0 size=       1KiB time=00:00:01.65 bitrate=   2.7kbits/s speed=0.00723x elapsed=0:03:48.10    \nframe=  199 fps=0.9 q=40.0 size=       1KiB time=00:00:01.65 bitrate=   2.7kbits/s speed=0.00721x elapsed=0:03:48.77    \nframe=  201 fps=0.9 q=32.0 size=       1KiB time=00:00:01.65 bitrate=   2.7kbits/s speed=0.00722x elapsed=0:03:49.57    \nframe=  203 fps=0.9 q=42.0 size=       1KiB time=00:00:01.67 bitrate=   2.7kbits/s speed=0.00727x elapsed=0:03:50.44    \nframe=  203 fps=0.9 q=42.0 size=       1KiB time=00:00:01.68 bitrate=   2.7kbits/s speed=0.00728x elapsed=0:03:51.24    \nframe=  204 fps=0.9 q=42.0 size=       1KiB time=00:00:01.69 bitrate=   2.6kbits/s speed=0.00729x elapsed=0:03:51.90    \nframe=  205 fps=0.9 q=39.0 size=       1KiB time=00:00:01.70 bitrate=   2.6kbits/s speed=0.00731x elapsed=0:03:52.49    \nframe=  208 fps=0.9 q=42.0 size=       1KiB time=00:00:01.72 bitrate=   2.6kbits/s speed=0.0074x elapsed=0:03:53.07    \nframe=  209 fps=0.9 q=22.0 size=       1KiB time=00:00:01.73 bitrate=   2.6kbits/s speed=0.00742x elapsed=0:03:53.62    \nframe=  210 fps=0.9 q=42.0 size=       1KiB time=00:00:01.74 bitrate=   2.6kbits/s speed=0.00743x elapsed=0:03:54.37    \nframe=  212 fps=0.9 q=42.0 size=       1KiB time=00:00:01.75 bitrate=   2.6kbits/s speed=0.00744x elapsed=0:03:55.09    \nframe=  213 fps=0.9 q=40.0 size=       1KiB time=00:00:01.75 bitrate=   2.5kbits/s speed=0.00745x elapsed=0:03:55.92    \nframe=  214 fps=0.9 q=42.0 size=       1KiB time=00:00:01.77 bitrate=   2.5kbits/s speed=0.0075x elapsed=0:03:56.82    \nframe=  215 fps=0.9 q=42.0 size=       1KiB time=00:00:01.78 bitrate=   2.5kbits/s speed=0.0075x elapsed=0:03:57.69    \nframe=  217 fps=0.9 q=32.0 size=       1KiB time=00:00:01.79 bitrate=   2.5kbits/s speed=0.00751x elapsed=0:03:58.72    \nframe=  219 fps=0.9 q=42.0 size=       1KiB time=00:00:01.81 bitrate=   2.5kbits/s speed=0.00757x elapsed=0:03:59.92    \nframe=  219 fps=0.9 q=42.0 size=       1KiB time=00:00:01.81 bitrate=   2.5kbits/s speed=0.00755x elapsed=0:04:00.51    \nframe=  220 fps=0.9 q=42.0 size=       1KiB time=00:00:01.82 bitrate=   2.5kbits/s speed=0.00757x elapsed=0:04:01.05    \nframe=  221 fps=0.9 q=39.0 size=       1KiB time=00:00:01.83 bitrate=   2.4kbits/s speed=0.00759x elapsed=0:04:01.62    \nframe=  222 fps=0.9 q=43.0 size=       1KiB time=00:00:01.84 bitrate=   2.4kbits/s speed=0.00761x elapsed=0:04:02.15    \nframe=  223 fps=0.9 q=42.0 size=       1KiB time=00:00:01.85 bitrate=   2.4kbits/s speed=0.00762x elapsed=0:04:02.68    \nframe=  224 fps=0.9 q=43.0 size=       1KiB time=00:00:01.85 bitrate=   2.4kbits/s speed=0.00764x elapsed=0:04:03.20    \nframe=  225 fps=0.9 q=22.0 size=       1KiB time=00:00:01.86 bitrate=   2.4kbits/s speed=0.00766x elapsed=0:04:03.77    \nframe=  226 fps=0.9 q=43.0 size=       1KiB time=00:00:01.87 bitrate=   2.4kbits/s speed=0.00768x elapsed=0:04:04.28    \nframe=  226 fps=0.9 q=43.0 size=       1KiB time=00:00:01.87 bitrate=   2.4kbits/s speed=0.00766x elapsed=0:04:04.82    \nframe=  227 fps=0.9 q=43.0 size=       1KiB time=00:00:01.88 bitrate=   2.4kbits/s speed=0.00768x elapsed=0:04:05.35    \nframe=  227 fps=0.9 q=43.0 size=       1KiB time=00:00:01.88 bitrate=   2.4kbits/s speed=0.00766x elapsed=0:04:05.87    \nframe=  228 fps=0.9 q=43.0 size=       1KiB time=00:00:01.89 bitrate=   2.4kbits/s speed=0.00767x elapsed=0:04:06.59    \nframe=  229 fps=0.9 q=41.0 size=       1KiB time=00:00:01.90 bitrate=   2.4kbits/s speed=0.00769x elapsed=0:04:07.18    \nframe=  230 fps=0.9 q=42.0 size=       1KiB time=00:00:01.90 bitrate=   2.3kbits/s speed=0.0077x elapsed=0:04:07.73    \nframe=  230 fps=0.9 q=42.0 size=       1KiB time=00:00:01.90 bitrate=   2.3kbits/s speed=0.00769x elapsed=0:04:08.27    \nframe=  231 fps=0.9 q=41.0 size=       1KiB time=00:00:01.91 bitrate=   2.3kbits/s speed=0.0077x elapsed=0:04:08.91    \nframe=  231 fps=0.9 q=41.0 size=       1KiB time=00:00:01.91 bitrate=   2.3kbits/s speed=0.00768x elapsed=0:04:09.41    \nframe=  232 fps=0.9 q=42.0 size=       1KiB time=00:00:01.92 bitrate=   2.3kbits/s speed=0.0077x elapsed=0:04:09.94    \nframe=  232 fps=0.9 q=42.0 size=       1KiB time=00:00:01.92 bitrate=   2.3kbits/s speed=0.00769x elapsed=0:04:10.45    \nframe=  233 fps=0.9 q=33.0 size=       1KiB time=00:00:01.93 bitrate=   2.3kbits/s speed=0.0077x elapsed=0:04:10.97    \nframe=  235 fps=0.9 q=43.0 size=       1KiB time=00:00:01.95 bitrate=   2.3kbits/s speed=0.00775x elapsed=0:04:11.48    \nframe=  236 fps=0.9 q=43.0 size=       1KiB time=00:00:01.95 bitrate=   2.3kbits/s speed=0.00777x elapsed=0:04:12.00    \nframe=  238 fps=0.9 q=44.0 size=       1KiB time=00:00:01.97 bitrate=   2.3kbits/s speed=0.00782x elapsed=0:04:12.51    \nframe=  239 fps=0.9 q=43.0 size=       1KiB time=00:00:01.98 bitrate=   2.3kbits/s speed=0.00784x elapsed=0:04:13.02    \nframe=  240 fps=0.9 q=44.0 size=       1KiB time=00:00:01.99 bitrate=   2.2kbits/s speed=0.00786x elapsed=0:04:13.54    \nframe=  241 fps=0.9 q=23.0 size=       1KiB time=00:00:02.00 bitrate=   2.2kbits/s speed=0.00787x elapsed=0:04:14.07    \nframe=  242 fps=1.0 q=44.0 size=       1KiB time=00:00:02.00 bitrate=   2.2kbits/s speed=0.00789x elapsed=0:04:14.59    \nframe=  243 fps=1.0 q=43.0 size=       1KiB time=00:00:02.01 bitrate=   2.2kbits/s speed=0.00791x elapsed=0:04:15.09    \nframe=  243 fps=1.0 q=43.0 size=       1KiB time=00:00:02.01 bitrate=   2.2kbits/s speed=0.00789x elapsed=0:04:15.60    \nframe=  244 fps=1.0 q=39.0 size=       1KiB time=00:00:02.02 bitrate=   2.2kbits/s speed=0.00791x elapsed=0:04:16.12    \nframe=  244 fps=1.0 q=39.0 size=       1KiB time=00:00:02.02 bitrate=   2.2kbits/s speed=0.00789x elapsed=0:04:16.64    \nframe=  245 fps=1.0 q=42.0 size=       1KiB time=00:00:02.03 bitrate=   2.2kbits/s speed=0.00791x elapsed=0:04:17.15    \nframe=  246 fps=1.0 q=43.0 size=       1KiB time=00:00:02.04 bitrate=   2.2kbits/s speed=0.00792x elapsed=0:04:17.67    \nframe=  246 fps=1.0 q=43.0 size=       1KiB time=00:00:02.04 bitrate=   2.2kbits/s speed=0.00791x elapsed=0:04:18.18    \nframe=  247 fps=1.0 q=42.0 size=       1KiB time=00:00:02.05 bitrate=   2.2kbits/s speed=0.00792x elapsed=0:04:18.70    \nframe=  248 fps=1.0 q=43.0 size=       1KiB time=00:00:02.05 bitrate=   2.2kbits/s speed=0.00794x elapsed=0:04:19.22    \nframe=  249 fps=1.0 q=34.0 size=       1KiB time=00:00:02.06 bitrate=   2.2kbits/s speed=0.00796x elapsed=0:04:19.73    \nframe=  251 fps=1.0 q=43.0 size=       1KiB time=00:00:02.08 bitrate=   2.2kbits/s speed=0.00801x elapsed=0:04:20.25    \nframe=  252 fps=1.0 q=44.0 size=       1KiB time=00:00:02.09 bitrate=   2.1kbits/s speed=0.00802x elapsed=0:04:20.77    \nframe=  253 fps=1.0 q=41.0 size=       1KiB time=00:00:02.10 bitrate=   2.1kbits/s speed=0.00804x elapsed=0:04:21.28    \nframe=  253 fps=1.0 q=41.0 size=       1KiB time=00:00:02.10 bitrate=   2.1kbits/s speed=0.00802x elapsed=0:04:21.80    \nframe=  255 fps=1.0 q=43.0 size=       1KiB time=00:00:02.11 bitrate=   2.1kbits/s speed=0.00807x elapsed=0:04:22.32    \nframe=  256 fps=1.0 q=44.0 size=       1KiB time=00:00:02.12 bitrate=   2.1kbits/s speed=0.00808x elapsed=0:04:22.83    \nframe=  257 fps=1.0 q=24.0 size=       1KiB time=00:00:02.13 bitrate=   2.1kbits/s speed=0.0081x elapsed=0:04:23.35    \nframe=  259 fps=1.0 q=44.0 size=       1KiB time=00:00:02.15 bitrate=   2.1kbits/s speed=0.00815x elapsed=0:04:23.87    \nframe=  259 fps=1.0 q=44.0 size=       1KiB time=00:00:02.15 bitrate=   2.1kbits/s speed=0.00813x elapsed=0:04:24.39    \nframe=  260 fps=1.0 q=45.0 size=       1KiB time=00:00:02.15 bitrate=   2.1kbits/s speed=0.00815x elapsed=0:04:24.91    \nframe=  262 fps=1.0 q=44.0 size=       1KiB time=00:00:02.17 bitrate=   2.1kbits/s speed=0.00819x elapsed=0:04:25.43    \nframe=  262 fps=1.0 q=44.0 size=       1KiB time=00:00:02.17 bitrate=   2.1kbits/s speed=0.00818x elapsed=0:04:25.93    \nframe=  263 fps=1.0 q=43.0 size=       1KiB time=00:00:02.18 bitrate=   2.1kbits/s speed=0.00819x elapsed=0:04:26.45    \nframe=  263 fps=1.0 q=43.0 size=       1KiB time=00:00:02.18 bitrate=   2.1kbits/s speed=0.00818x elapsed=0:04:26.97    \nframe=  265 fps=1.0 q=35.0 size=       1KiB time=00:00:02.20 bitrate=   2.0kbits/s speed=0.00822x elapsed=0:04:27.48    \nframe=  267 fps=1.0 q=44.0 size=       1KiB time=00:00:02.21 bitrate=   2.0kbits/s speed=0.00827x elapsed=0:04:28.00    \nframe=  267 fps=1.0 q=44.0 size=       1KiB time=00:00:02.21 bitrate=   2.0kbits/s speed=0.00826x elapsed=0:04:28.51    \nframe=  267 fps=1.0 q=44.0 size=       1KiB time=00:00:02.21 bitrate=   2.0kbits/s speed=0.00824x elapsed=0:04:29.03    \nframe=  268 fps=1.0 q=42.0 size=       1KiB time=00:00:02.22 bitrate=   2.0kbits/s speed=0.00825x elapsed=0:04:29.54    \nframe=  269 fps=1.0 q=42.0 size=       1KiB time=00:00:02.23 bitrate=   2.0kbits/s speed=0.00827x elapsed=0:04:30.07    \nframe=  271 fps=1.0 q=44.0 size=       1KiB time=00:00:02.25 bitrate=   2.0kbits/s speed=0.00832x elapsed=0:04:30.58    \nframe=  272 fps=1.0 q=45.0 size=       1KiB time=00:00:02.25 bitrate=   2.0kbits/s speed=0.00833x elapsed=0:04:31.10    \nframe=  274 fps=1.0 q=46.0 size=       1KiB time=00:00:02.27 bitrate=   2.0kbits/s speed=0.00838x elapsed=0:04:31.61    \nframe=  275 fps=1.0 q=45.0 size=       1KiB time=00:00:02.28 bitrate=   2.0kbits/s speed=0.00839x elapsed=0:04:32.12    \nframe=  275 fps=1.0 q=45.0 size=       1KiB time=00:00:02.28 bitrate=   2.0kbits/s speed=0.00837x elapsed=0:04:32.64    \nframe=  276 fps=1.0 q=38.0 size=       1KiB time=00:00:02.29 bitrate=   2.0kbits/s speed=0.00839x elapsed=0:04:33.16    \nframe=  277 fps=1.0 q=43.0 size=       1KiB time=00:00:02.30 bitrate=   1.9kbits/s speed=0.0084x elapsed=0:04:33.67    \nframe=  278 fps=1.0 q=45.0 size=       1KiB time=00:00:02.30 bitrate=   1.9kbits/s speed=0.00842x elapsed=0:04:34.19    \nframe=  278 fps=1.0 q=45.0 size=       1KiB time=00:00:02.30 bitrate=   1.9kbits/s speed=0.0084x elapsed=0:04:34.73    \nframe=  279 fps=1.0 q=43.0 size=       1KiB time=00:00:02.31 bitrate=   1.9kbits/s speed=0.00842x elapsed=0:04:35.26    \nframe=  279 fps=1.0 q=43.0 size=       1KiB time=00:00:02.31 bitrate=   1.9kbits/s speed=0.0084x elapsed=0:04:35.81    \nframe=  281 fps=1.0 q=37.0 size=       1KiB time=00:00:02.33 bitrate=   1.9kbits/s speed=0.00844x elapsed=0:04:36.34    \nframe=  283 fps=1.0 q=44.0 size=       1KiB time=00:00:02.35 bitrate=   1.9kbits/s speed=0.00849x elapsed=0:04:36.85    \nframe=  283 fps=1.0 q=44.0 size=       1KiB time=00:00:02.35 bitrate=   1.9kbits/s speed=0.00847x elapsed=0:04:37.37    \nframe=  284 fps=1.0 q=45.0 size=       1KiB time=00:00:02.35 bitrate=   1.9kbits/s speed=0.00849x elapsed=0:04:37.89    \nframe=  285 fps=1.0 q=42.0 size=       1KiB time=00:00:02.36 bitrate=   1.9kbits/s speed=0.0085x elapsed=0:04:38.41    \nframe=  286 fps=1.0 q=46.0 size=       1KiB time=00:00:02.37 bitrate=   1.9kbits/s speed=0.00851x elapsed=0:04:38.92    \nframe=  287 fps=1.0 q=44.0 size=       1KiB time=00:00:02.38 bitrate=   1.9kbits/s speed=0.00853x elapsed=0:04:39.44    \nframe=  288 fps=1.0 q=42.0 size=       1KiB time=00:00:02.39 bitrate=   1.9kbits/s speed=0.00854x elapsed=0:04:39.95    \nframe=  289 fps=1.0 q=28.0 size=       1KiB time=00:00:02.40 bitrate=   1.9kbits/s speed=0.00856x elapsed=0:04:40.48    \nframe=  289 fps=1.0 q=28.0 size=       1KiB time=00:00:02.40 bitrate=   1.9kbits/s speed=0.00854x elapsed=0:04:40.98    \nframe=  290 fps=1.0 q=47.0 size=       1KiB time=00:00:02.40 bitrate=   1.9kbits/s speed=0.00856x elapsed=0:04:41.51    \nframe=  290 fps=1.0 q=47.0 size=       1KiB time=00:00:02.40 bitrate=   1.9kbits/s speed=0.00854x elapsed=0:04:42.02    \nframe=  291 fps=1.0 q=45.0 size=       1KiB time=00:00:02.41 bitrate=   1.9kbits/s speed=0.00855x elapsed=0:04:42.55    \nframe=  291 fps=1.0 q=45.0 size=       1KiB time=00:00:02.41 bitrate=   1.9kbits/s speed=0.00854x elapsed=0:04:43.07    \nframe=  292 fps=1.0 q=47.0 size=       1KiB time=00:00:02.42 bitrate=   1.8kbits/s speed=0.00855x elapsed=0:04:43.57    \nframe=  293 fps=1.0 q=43.0 size=       1KiB time=00:00:02.43 bitrate=   1.8kbits/s speed=0.00857x elapsed=0:04:44.09    \nframe=  294 fps=1.0 q=47.0 size=       1KiB time=00:00:02.44 bitrate=   1.8kbits/s speed=0.00858x elapsed=0:04:44.61    \nframe=  295 fps=1.0 q=46.0 size=       1KiB time=00:00:02.45 bitrate=   1.8kbits/s speed=0.00859x elapsed=0:04:45.13    \nframe=  295 fps=1.0 q=46.0 size=       1KiB time=00:00:02.45 bitrate=   1.8kbits/s speed=0.00858x elapsed=0:04:45.64    \nframe=  295 fps=1.0 q=46.0 size=       1KiB time=00:00:02.45 bitrate=   1.8kbits/s speed=0.00856x elapsed=0:04:46.16    \nframe=  296 fps=1.0 q=48.0 size=       1KiB time=00:00:02.45 bitrate=   1.8kbits/s speed=0.00858x elapsed=0:04:46.67    \nframe=  298 fps=1.0 q=48.0 size=       1KiB time=00:00:02.47 bitrate=   1.8kbits/s speed=0.00862x elapsed=0:04:47.19    \nframe=  299 fps=1.0 q=46.0 size=       1KiB time=00:00:02.48 bitrate=   1.8kbits/s speed=0.00863x elapsed=0:04:47.70    \nframe=  301 fps=1.0 q=42.0 size=       1KiB time=00:00:02.50 bitrate=   1.8kbits/s speed=0.00867x elapsed=0:04:48.21    \nframe=  302 fps=1.0 q=46.0 size=       1KiB time=00:00:02.50 bitrate=   1.8kbits/s speed=0.00869x elapsed=0:04:48.73    \nframe=  304 fps=1.1 q=46.0 size=       1KiB time=00:00:02.52 bitrate=   1.8kbits/s speed=0.00873x elapsed=0:04:49.24    \nframe=  305 fps=1.1 q=29.0 size=       1KiB time=00:00:02.53 bitrate=   1.8kbits/s speed=0.00874x elapsed=0:04:49.76    \nframe=  306 fps=1.1 q=47.0 size=       1KiB time=00:00:02.54 bitrate=   1.8kbits/s speed=0.00876x elapsed=0:04:50.28    \nframe=  307 fps=1.1 q=46.0 size=       1KiB time=00:00:02.55 bitrate=   1.8kbits/s speed=0.00877x elapsed=0:04:50.80    \nframe=  307 fps=1.1 q=46.0 size=       1KiB time=00:00:02.55 bitrate=   1.8kbits/s speed=0.00875x elapsed=0:04:51.31    \nframe=  308 fps=1.1 q=47.0 size=       1KiB time=00:00:02.55 bitrate=   1.8kbits/s speed=0.00877x elapsed=0:04:51.83    \nframe=  309 fps=1.1 q=44.0 size=       1KiB time=00:00:02.56 bitrate=   1.7kbits/s speed=0.00878x elapsed=0:04:52.34    \nframe=  310 fps=1.1 q=47.0 size=       1KiB time=00:00:02.57 bitrate=   1.7kbits/s speed=0.00879x elapsed=0:04:52.86    \nframe=  310 fps=1.1 q=47.0 size=       1KiB time=00:00:02.57 bitrate=   1.7kbits/s speed=0.00878x elapsed=0:04:53.37    \nframe=  310 fps=1.1 q=47.0 size=       1KiB time=00:00:02.57 bitrate=   1.7kbits/s speed=0.00876x elapsed=0:04:53.88    \nframe=  310 fps=1.1 q=47.0 size=       1KiB time=00:00:02.57 bitrate=   1.7kbits/s speed=0.00875x elapsed=0:04:54.40    \nframe=  311 fps=1.1 q=43.0 size=       1KiB time=00:00:02.58 bitrate=   1.7kbits/s speed=0.00876x elapsed=0:04:54.92    \nframe=  311 fps=1.1 q=43.0 size=       1KiB time=00:00:02.58 bitrate=   1.7kbits/s speed=0.00874x elapsed=0:04:55.44    \nframe=  314 fps=1.1 q=48.0 size=       1KiB time=00:00:02.60 bitrate=   1.7kbits/s speed=0.00881x elapsed=0:04:55.95    \nframe=  315 fps=1.1 q=45.0 size=       1KiB time=00:00:02.61 bitrate=   1.7kbits/s speed=0.00883x elapsed=0:04:56.47    \nframe=  316 fps=1.1 q=48.0 size=       1KiB time=00:00:02.62 bitrate=   1.7kbits/s speed=0.00884x elapsed=0:04:56.99    \nframe=  317 fps=1.1 q=42.0 size=       1KiB time=00:00:02.63 bitrate=   1.7kbits/s speed=0.00885x elapsed=0:04:57.50    \nframe=  320 fps=1.1 q=48.0 size=       1KiB time=00:00:02.65 bitrate=   1.7kbits/s speed=0.00892x elapsed=0:04:58.02    \nframe=  321 fps=1.1 q=30.0 size=       1KiB time=00:00:02.66 bitrate=   1.7kbits/s speed=0.00893x elapsed=0:04:58.53    \nframe=  322 fps=1.1 q=48.0 size=       1KiB time=00:00:02.67 bitrate=   1.7kbits/s speed=0.00895x elapsed=0:04:59.04    \nframe=  323 fps=1.1 q=47.0 size=       1KiB time=00:00:02.68 bitrate=   1.7kbits/s speed=0.00896x elapsed=0:04:59.56    \nframe=  323 fps=1.1 q=47.0 size=       1KiB time=00:00:02.68 bitrate=   1.7kbits/s speed=0.00894x elapsed=0:05:00.07    \nframe=  324 fps=1.1 q=48.0 size=       1KiB time=00:00:02.69 bitrate=   1.7kbits/s speed=0.00895x elapsed=0:05:00.60    \nframe=  325 fps=1.1 q=45.0 size=       1KiB time=00:00:02.70 bitrate=   1.7kbits/s speed=0.00897x elapsed=0:05:01.12    \nframe=  326 fps=1.1 q=48.0 size=       1KiB time=00:00:02.70 bitrate=   1.7kbits/s speed=0.00898x elapsed=0:05:01.65    \nframe=  327 fps=1.1 q=47.0 size=       1KiB time=00:00:02.71 bitrate=   1.6kbits/s speed=0.00899x elapsed=0:05:02.16    \nframe=  328 fps=1.1 q=48.0 size=       1KiB time=00:00:02.72 bitrate=   1.6kbits/s speed=0.009x elapsed=0:05:02.68    \nframe=  330 fps=1.1 q=47.0 size=       1KiB time=00:00:02.74 bitrate=   1.6kbits/s speed=0.00904x elapsed=0:05:03.21    \nframe=  331 fps=1.1 q=45.0 size=       1KiB time=00:00:02.75 bitrate=   1.6kbits/s speed=0.00905x elapsed=0:05:03.72    \nframe=  332 fps=1.1 q=46.0 size=       1KiB time=00:00:02.75 bitrate=   1.6kbits/s speed=0.00907x elapsed=0:05:04.23    \nframe=  334 fps=1.1 q=46.0 size=       1KiB time=00:00:02.77 bitrate=   1.6kbits/s speed=0.00911x elapsed=0:05:04.75    \nframe=  335 fps=1.1 q=44.0 size=       1KiB time=00:00:02.78 bitrate=   1.6kbits/s speed=0.00912x elapsed=0:05:05.27    \nframe=  337 fps=1.1 q=30.0 size=       1KiB time=00:00:02.80 bitrate=   1.6kbits/s speed=0.00916x elapsed=0:05:05.77    \nframe=  339 fps=1.1 q=46.0 size=       1KiB time=00:00:02.81 bitrate=   1.6kbits/s speed=0.0092x elapsed=0:05:06.30    \nframe=  340 fps=1.1 q=47.0 size=       1KiB time=00:00:02.82 bitrate=   1.6kbits/s speed=0.00921x elapsed=0:05:06.81    \nframe=  341 fps=1.1 q=44.0 size=       1KiB time=00:00:02.83 bitrate=   1.6kbits/s speed=0.00922x elapsed=0:05:07.32    \nframe=  342 fps=1.1 q=45.0 size=       1KiB time=00:00:02.84 bitrate=   1.6kbits/s speed=0.00923x elapsed=0:05:07.84    \nframe=  342 fps=1.1 q=45.0 size=       1KiB time=00:00:02.84 bitrate=   1.6kbits/s speed=0.00922x elapsed=0:05:08.35    \nframe=  343 fps=1.1 q=42.0 size=       1KiB time=00:00:02.85 bitrate=   1.6kbits/s speed=0.00923x elapsed=0:05:08.87    \nframe=  343 fps=1.1 q=42.0 size=       1KiB time=00:00:02.85 bitrate=   1.6kbits/s speed=0.00921x elapsed=0:05:09.39    \nframe=  344 fps=1.1 q=45.0 size=       1KiB time=00:00:02.85 bitrate=   1.6kbits/s speed=0.00922x elapsed=0:05:09.90    \nframe=  346 fps=1.1 q=47.0 size=       1KiB time=00:00:02.87 bitrate=   1.6kbits/s speed=0.00926x elapsed=0:05:10.42    \nframe=  346 fps=1.1 q=47.0 size=       1KiB time=00:00:02.87 bitrate=   1.6kbits/s speed=0.00925x elapsed=0:05:10.93    \nframe=  347 fps=1.1 q=45.0 size=       1KiB time=00:00:02.88 bitrate=   1.6kbits/s speed=0.00926x elapsed=0:05:11.46    \nframe=  348 fps=1.1 q=44.0 size=       1KiB time=00:00:02.89 bitrate=   1.5kbits/s speed=0.00927x elapsed=0:05:11.97    \nframe=  349 fps=1.1 q=41.0 size=       1KiB time=00:00:02.90 bitrate=   1.5kbits/s speed=0.00928x elapsed=0:05:12.48    \nframe=  352 fps=1.1 q=46.0 size=       1KiB time=00:00:02.92 bitrate=   1.5kbits/s speed=0.00934x elapsed=0:05:13.00    \nframe=  353 fps=1.1 q=29.0 size=       1KiB time=00:00:02.93 bitrate=   1.5kbits/s speed=0.00936x elapsed=0:05:13.51    \nframe=  355 fps=1.1 q=46.0 size=       1KiB time=00:00:02.95 bitrate=   1.5kbits/s speed=0.00939x elapsed=0:05:14.03    \nframe=  355 fps=1.1 q=46.0 size=       1KiB time=00:00:02.95 bitrate=   1.5kbits/s speed=0.00938x elapsed=0:05:14.54    \nframe=  356 fps=1.1 q=47.0 size=       1KiB time=00:00:02.95 bitrate=   1.5kbits/s speed=0.00939x elapsed=0:05:15.06    \nframe=  358 fps=1.1 q=47.0 size=       1KiB time=00:00:02.97 bitrate=   1.5kbits/s speed=0.00943x elapsed=0:05:15.58    \nframe=  358 fps=1.1 q=47.0 size=       1KiB time=00:00:02.97 bitrate=   1.5kbits/s speed=0.00941x elapsed=0:05:16.10    \nframe=  359 fps=1.1 q=46.0 size=       1KiB time=00:00:02.98 bitrate=   1.5kbits/s speed=0.00942x elapsed=0:05:16.60    \nframe=  360 fps=1.1 q=47.0 size=       1KiB time=00:00:02.99 bitrate=   1.5kbits/s speed=0.00943x elapsed=0:05:17.12    \nframe=  362 fps=1.1 q=46.0 size=       1KiB time=00:00:03.00 bitrate=   1.5kbits/s speed=0.00947x elapsed=0:05:17.64    \nframe=  363 fps=1.1 q=44.0 size=       1KiB time=00:00:03.01 bitrate=   1.5kbits/s speed=0.00948x elapsed=0:05:18.15    \nframe=  363 fps=1.1 q=44.0 size=       1KiB time=00:00:03.01 bitrate=   1.5kbits/s speed=0.00947x elapsed=0:05:18.67    \nframe=  364 fps=1.1 q=44.0 size=       1KiB time=00:00:03.02 bitrate=   1.5kbits/s speed=0.00948x elapsed=0:05:19.18    \nframe=  365 fps=1.1 q=41.0 size=       1KiB time=00:00:03.03 bitrate=   1.5kbits/s speed=0.00949x elapsed=0:05:19.71    \nframe=  367 fps=1.1 q=44.0 size=       1KiB time=00:00:03.05 bitrate=   1.5kbits/s speed=0.00952x elapsed=0:05:20.22    \nframe=  369 fps=1.2 q=28.0 size=       1KiB time=00:00:03.06 bitrate=   1.5kbits/s speed=0.00956x elapsed=0:05:20.73    \nframe=  371 fps=1.2 q=44.0 size=       1KiB time=00:00:03.08 bitrate=   1.5kbits/s speed=0.0096x elapsed=0:05:21.24    \nframe=  373 fps=1.2 q=40.0 size=       1KiB time=00:00:03.10 bitrate=   1.4kbits/s speed=0.00963x elapsed=0:05:21.76    \nframe=  373 fps=1.2 q=40.0 size=       1KiB time=00:00:03.10 bitrate=   1.4kbits/s speed=0.00962x elapsed=0:05:22.28    \nframe=  374 fps=1.2 q=46.0 size=       1KiB time=00:00:03.10 bitrate=   1.4kbits/s speed=0.00963x elapsed=0:05:22.79    \nframe=  375 fps=1.2 q=44.0 size=       1KiB time=00:00:03.11 bitrate=   1.4kbits/s speed=0.00964x elapsed=0:05:23.31    \nframe=  375 fps=1.2 q=44.0 size=       1KiB time=00:00:03.11 bitrate=   1.4kbits/s speed=0.00962x elapsed=0:05:23.82    \nframe=  375 fps=1.2 q=44.0 size=       1KiB time=00:00:03.11 bitrate=   1.4kbits/s speed=0.00961x elapsed=0:05:24.34    \nframe=  377 fps=1.2 q=40.0 size=       1KiB time=00:00:03.13 bitrate=   1.4kbits/s speed=0.00964x elapsed=0:05:24.89    \nframe=  378 fps=1.2 q=46.0 size=       1KiB time=00:00:03.14 bitrate=   1.4kbits/s speed=0.00965x elapsed=0:05:25.45    \nframe=  378 fps=1.2 q=46.0 size=       1KiB time=00:00:03.14 bitrate=   1.4kbits/s speed=0.00964x elapsed=0:05:25.96    \nframe=  380 fps=1.2 q=46.0 size=       1KiB time=00:00:03.15 bitrate=   1.4kbits/s speed=0.00967x elapsed=0:05:26.48    \nframe=  380 fps=1.2 q=46.0 size=       1KiB time=00:00:03.15 bitrate=   1.4kbits/s speed=0.00966x elapsed=0:05:27.04    \nframe=  381 fps=1.2 q=40.0 size=       1KiB time=00:00:03.16 bitrate=   1.4kbits/s speed=0.00967x elapsed=0:05:27.57    \nframe=  382 fps=1.2 q=45.0 size=       1KiB time=00:00:03.17 bitrate=   1.4kbits/s speed=0.00968x elapsed=0:05:28.09    \nframe=  384 fps=1.2 q=44.0 size=       1KiB time=00:00:03.19 bitrate=   1.4kbits/s speed=0.00971x elapsed=0:05:28.60    \nframe=  385 fps=1.2 q=28.0 size=       1KiB time=00:00:03.20 bitrate=   1.4kbits/s speed=0.00972x elapsed=0:05:29.12    \nframe=  386 fps=1.2 q=46.0 size=       1KiB time=00:00:03.20 bitrate=   1.4kbits/s speed=0.00973x elapsed=0:05:29.63    \nframe=  387 fps=1.2 q=44.0 size=       1KiB time=00:00:03.21 bitrate=   1.4kbits/s speed=0.00974x elapsed=0:05:30.15    \nframe=  388 fps=1.2 q=46.0 size=       1KiB time=00:00:03.22 bitrate=   1.4kbits/s speed=0.00975x elapsed=0:05:30.73    \nframe=  389 fps=1.2 q=40.0 size=       1KiB time=00:00:03.23 bitrate=   1.4kbits/s speed=0.00976x elapsed=0:05:31.24    \nframe=  390 fps=1.2 q=46.0 size=       1KiB time=00:00:03.24 bitrate=   1.4kbits/s speed=0.00977x elapsed=0:05:31.77    \nframe=  393 fps=1.2 q=38.0 size=       1KiB time=00:00:03.26 bitrate=   1.4kbits/s speed=0.00983x elapsed=0:05:32.34    \nframe=  394 fps=1.2 q=46.0 size=       1KiB time=00:00:03.27 bitrate=   1.4kbits/s speed=0.00984x elapsed=0:05:32.86    \nframe=  395 fps=1.2 q=44.0 size=       1KiB time=00:00:03.28 bitrate=   1.4kbits/s speed=0.00985x elapsed=0:05:33.37    \nframe=  396 fps=1.2 q=42.0 size=       1KiB time=00:00:03.29 bitrate=   1.4kbits/s speed=0.00986x elapsed=0:05:33.89    \nframe=  400 fps=1.2 q=45.0 size=       1KiB time=00:00:03.32 bitrate=   1.3kbits/s speed=0.00994x elapsed=0:05:34.41    \nframe=  402 fps=1.2 q=46.0 size=       1KiB time=00:00:03.34 bitrate=   1.3kbits/s speed=0.00998x elapsed=0:05:34.98    \nframe=  405 fps=1.2 q=42.0 size=       1KiB time=00:00:03.36 bitrate=   1.3kbits/s speed=0.01x elapsed=0:05:35.53    \nframe=  406 fps=1.2 q=44.0 size=       1KiB time=00:00:03.37 bitrate=   1.3kbits/s speed=0.01x elapsed=0:05:36.06    \nframe=  408 fps=1.2 q=44.0 size=       1KiB time=00:00:03.39 bitrate=   1.3kbits/s speed=0.0101x elapsed=0:05:36.57    \nframe=  410 fps=1.2 q=46.0 size=       1KiB time=00:00:03.40 bitrate=   1.3kbits/s speed=0.0101x elapsed=0:05:37.16    \nframe=  411 fps=1.2 q=44.0 size=       1KiB time=00:00:03.40 bitrate=   1.3kbits/s speed=0.0101x elapsed=0:05:37.71    \nframe=  413 fps=1.2 q=40.0 size=       1KiB time=00:00:03.43 bitrate=   1.3kbits/s speed=0.0101x elapsed=0:05:38.40    \nframe=  415 fps=1.2 q=43.0 size=       1KiB time=00:00:03.45 bitrate=   1.3kbits/s speed=0.0102x elapsed=0:05:38.95    \nframe=  417 fps=1.2 q=27.0 size=       1KiB time=00:00:03.46 bitrate=   1.3kbits/s speed=0.0102x elapsed=0:05:39.46    \nframe=  420 fps=1.2 q=46.0 size=       1KiB time=00:00:03.49 bitrate=   1.3kbits/s speed=0.0103x elapsed=0:05:39.98    \nframe=  421 fps=1.2 q=43.0 size=       1KiB time=00:00:03.50 bitrate=   1.3kbits/s speed=0.0103x elapsed=0:05:40.50    \nframe=  422 fps=1.2 q=46.0 size=       1KiB time=00:00:03.50 bitrate=   1.3kbits/s speed=0.0103x elapsed=0:05:41.03    \nframe=  424 fps=1.2 q=46.0 size=       1KiB time=00:00:03.52 bitrate=   1.3kbits/s speed=0.0103x elapsed=0:05:41.54    \nframe=  425 fps=1.2 q=38.0 size=       1KiB time=00:00:03.53 bitrate=   1.3kbits/s speed=0.0103x elapsed=0:05:42.06    \nframe=  426 fps=1.2 q=46.0 size=       1KiB time=00:00:03.54 bitrate=   1.3kbits/s speed=0.0103x elapsed=0:05:42.57    \nframe=  426 fps=1.2 q=46.0 size=       1KiB time=00:00:03.54 bitrate=   1.3kbits/s speed=0.0103x elapsed=0:05:43.13    \nframe=  427 fps=1.2 q=44.0 size=       1KiB time=00:00:03.55 bitrate=   1.3kbits/s speed=0.0103x elapsed=0:05:43.66    \nframe=  428 fps=1.2 q=42.0 size=       1KiB time=00:00:03.55 bitrate=   1.3kbits/s speed=0.0103x elapsed=0:05:44.20    \nframe=  430 fps=1.2 q=44.0 size=       1KiB time=00:00:03.57 bitrate=   1.3kbits/s speed=0.0104x elapsed=0:05:44.75    \nframe=  430 fps=1.2 q=44.0 size=       1KiB time=00:00:03.57 bitrate=   1.3kbits/s speed=0.0104x elapsed=0:05:45.31    \nframe=  431 fps=1.2 q=42.0 size=       1KiB time=00:00:03.58 bitrate=   1.3kbits/s speed=0.0104x elapsed=0:05:45.82    \nframe=  433 fps=1.2 q=28.0 size=       1KiB time=00:00:03.60 bitrate=   1.2kbits/s speed=0.0104x elapsed=0:05:46.44    \nframe=  434 fps=1.3 q=45.0 size=       1KiB time=00:00:03.60 bitrate=   1.2kbits/s speed=0.0104x elapsed=0:05:46.98    \nframe=  436 fps=1.3 q=45.0 size=       1KiB time=00:00:03.62 bitrate=   1.2kbits/s speed=0.0104x elapsed=0:05:47.51    \nframe=  437 fps=1.3 q=39.0 size=       1KiB time=00:00:03.63 bitrate=   1.2kbits/s speed=0.0104x elapsed=0:05:48.03    \nframe=  437 fps=1.3 q=39.0 size=       1KiB time=00:00:03.63 bitrate=   1.2kbits/s speed=0.0104x elapsed=0:05:48.56    \nframe=  438 fps=1.3 q=45.0 size=       1KiB time=00:00:03.64 bitrate=   1.2kbits/s speed=0.0104x elapsed=0:05:49.08    \nframe=  439 fps=1.3 q=43.0 size=       1KiB time=00:00:03.64 bitrate=   1.2kbits/s speed=0.0104x elapsed=0:05:49.60    \nframe=  441 fps=1.3 q=37.0 size=       1KiB time=00:00:03.66 bitrate=   1.2kbits/s speed=0.0105x elapsed=0:05:50.13    \nframe=  442 fps=1.3 q=45.0 size=       1KiB time=00:00:03.67 bitrate=   1.2kbits/s speed=0.0105x elapsed=0:05:50.63    \nframe=  443 fps=1.3 q=43.0 size=       1KiB time=00:00:03.68 bitrate=   1.2kbits/s speed=0.0105x elapsed=0:05:51.15    \nframe=  447 fps=1.3 q=41.0 size=       1KiB time=00:00:03.71 bitrate=   1.2kbits/s speed=0.0106x elapsed=0:05:51.68    \nframe=  449 fps=1.3 q=27.0 size=       1KiB time=00:00:03.73 bitrate=   1.2kbits/s speed=0.0106x elapsed=0:05:52.24    \nframe=  450 fps=1.3 q=45.0 size=       1KiB time=00:00:03.74 bitrate=   1.2kbits/s speed=0.0106x elapsed=0:05:52.75    \nframe=  453 fps=1.3 q=41.0 size=       1KiB time=00:00:03.76 bitrate=   1.2kbits/s speed=0.0107x elapsed=0:05:53.26    \nframe=  453 fps=1.3 q=41.0 size=       1KiB time=00:00:03.76 bitrate=   1.2kbits/s speed=0.0106x elapsed=0:05:53.78    \nframe=  455 fps=1.3 q=44.0 size=       1KiB time=00:00:03.78 bitrate=   1.2kbits/s speed=0.0107x elapsed=0:05:54.31    \nframe=  456 fps=1.3 q=45.0 size=       1KiB time=00:00:03.79 bitrate=   1.2kbits/s speed=0.0107x elapsed=0:05:54.83    \nframe=  458 fps=1.3 q=45.0 size=       1KiB time=00:00:03.80 bitrate=   1.2kbits/s speed=0.0107x elapsed=0:05:55.34    \nframe=  458 fps=1.3 q=43.0 size=       1KiB time=00:00:03.81 bitrate=   1.2kbits/s speed=0.0107x elapsed=0:05:55.89    \nframe=  460 fps=1.3 q=45.0 size=       1KiB time=00:00:03.82 bitrate=   1.2kbits/s speed=0.0107x elapsed=0:05:56.40    \nframe=  462 fps=1.3 q=45.0 size=       1KiB time=00:00:03.84 bitrate=   1.2kbits/s speed=0.0108x elapsed=0:05:56.93    \nframe=  465 fps=1.3 q=26.0 size=       1KiB time=00:00:03.86 bitrate=   1.2kbits/s speed=0.0108x elapsed=0:05:57.44    \nframe=  466 fps=1.3 q=45.0 size=       1KiB time=00:00:03.87 bitrate=   1.2kbits/s speed=0.0108x elapsed=0:05:57.96    \nframe=  466 fps=1.3 q=45.0 size=       1KiB time=00:00:03.87 bitrate=   1.2kbits/s speed=0.0108x elapsed=0:05:58.48    \nframe=  466 fps=1.3 q=45.0 size=       1KiB time=00:00:03.87 bitrate=   1.2kbits/s speed=0.0108x elapsed=0:05:59.00    \nframe=  468 fps=1.3 q=45.0 size=       1KiB time=00:00:03.89 bitrate=   1.2kbits/s speed=0.0108x elapsed=0:05:59.57    \nframe=  469 fps=1.3 q=41.0 size=       1KiB time=00:00:03.90 bitrate=   1.1kbits/s speed=0.0108x elapsed=0:06:00.12    \nframe=  470 fps=1.3 q=42.0 size=       1KiB time=00:00:03.90 bitrate=   1.1kbits/s speed=0.0108x elapsed=0:06:00.78    \nframe=  473 fps=1.3 q=36.0 size=       1KiB time=00:00:03.92 bitrate=   1.1kbits/s speed=0.0109x elapsed=0:06:01.32    \nframe=  474 fps=1.3 q=45.0 size=       1KiB time=00:00:03.94 bitrate=   1.1kbits/s speed=0.0109x elapsed=0:06:01.92    \nframe=  478 fps=1.3 q=45.0 size=       1KiB time=00:00:03.97 bitrate=   1.1kbits/s speed=0.011x elapsed=0:06:02.44    \nframe=  481 fps=1.3 q=26.0 size=       1KiB time=00:00:04.00 bitrate=   1.1kbits/s speed=0.011x elapsed=0:06:02.96    \nframe=  484 fps=1.3 q=45.0 size=       1KiB time=00:00:04.02 bitrate=   1.1kbits/s speed=0.0111x elapsed=0:06:03.48    \nframe=  486 fps=1.3 q=42.0 size=       1KiB time=00:00:04.04 bitrate=   1.1kbits/s speed=0.0111x elapsed=0:06:03.99    \nframe=  487 fps=1.3 q=37.0 size=       1KiB time=00:00:04.05 bitrate=   1.1kbits/s speed=0.0111x elapsed=0:06:04.58    \nframe=  490 fps=1.3 q=44.0 size=       1KiB time=00:00:04.07 bitrate=   1.1kbits/s speed=0.0112x elapsed=0:06:05.11    \nframe=  490 fps=1.3 q=44.0 size=       1KiB time=00:00:04.07 bitrate=   1.1kbits/s speed=0.0111x elapsed=0:06:05.62    \nframe=  491 fps=1.3 q=42.0 size=       1KiB time=00:00:04.08 bitrate=   1.1kbits/s speed=0.0112x elapsed=0:06:06.14    \nframe=  494 fps=1.3 q=45.0 size=       1KiB time=00:00:04.10 bitrate=   1.1kbits/s speed=0.0112x elapsed=0:06:06.67    \nframe=  497 fps=1.4 q=27.0 size=       1KiB time=00:00:04.13 bitrate=   1.1kbits/s speed=0.0113x elapsed=0:06:07.19    \nframe=  498 fps=1.4 q=46.0 size=       1KiB time=00:00:04.14 bitrate=   1.1kbits/s speed=0.0113x elapsed=0:06:07.73    \nframe=  499 fps=1.4 q=45.0 size=       1KiB time=00:00:04.15 bitrate=   1.1kbits/s speed=0.0113x elapsed=0:06:08.29    \nframe=  500 fps=1.4 q=46.0 size=       1KiB time=00:00:04.15 bitrate=   1.1kbits/s speed=0.0113x elapsed=0:06:08.81    \nframe=  505 fps=1.4 q=37.0 size=       1KiB time=00:00:04.16 bitrate=   1.1kbits/s speed=0.0113x elapsed=0:06:09.32    \nframe=  505 fps=1.4 q=37.0 size=       1KiB time=00:00:04.20 bitrate=   1.1kbits/s speed=0.0114x elapsed=0:06:09.90    \nframe=  505 fps=1.4 q=37.0 size=       1KiB time=00:00:04.20 bitrate=   1.1kbits/s speed=0.0113x elapsed=0:06:10.45    \nframe=  507 fps=1.4 q=43.0 size=       1KiB time=00:00:04.21 bitrate=   1.1kbits/s speed=0.0114x elapsed=0:06:10.98    \nframe=  509 fps=1.4 q=38.0 size=       1KiB time=00:00:04.23 bitrate=   1.1kbits/s speed=0.0114x elapsed=0:06:11.50    \nframe=  513 fps=1.4 q=27.0 size=       1KiB time=00:00:04.26 bitrate=   1.0kbits/s speed=0.0115x elapsed=0:06:12.02    \nframe=  513 fps=1.4 q=27.0 size=       1KiB time=00:00:04.26 bitrate=   1.0kbits/s speed=0.0115x elapsed=0:06:12.56    \nframe=  515 fps=1.4 q=45.0 size=       1KiB time=00:00:04.28 bitrate=   1.0kbits/s speed=0.0115x elapsed=0:06:13.10    \nframe=  517 fps=1.4 q=42.0 size=       1KiB time=00:00:04.30 bitrate=   1.0kbits/s speed=0.0115x elapsed=0:06:13.67    \nframe=  519 fps=1.4 q=37.0 size=       1KiB time=00:00:04.31 bitrate=   1.0kbits/s speed=0.0115x elapsed=0:06:14.29    \nframe=  521 fps=1.4 q=37.0 size=       1KiB time=00:00:04.33 bitrate=   1.0kbits/s speed=0.0116x elapsed=0:06:14.86    \nframe=  523 fps=1.4 q=43.0 size=       1KiB time=00:00:04.35 bitrate=   1.0kbits/s speed=0.0116x elapsed=0:06:15.50    \nframe=  525 fps=1.4 q=39.0 size=       1KiB time=00:00:04.36 bitrate=   1.0kbits/s speed=0.0116x elapsed=0:06:16.05    \nframe=  529 fps=1.4 q=27.0 size=       1KiB time=00:00:04.40 bitrate=   1.0kbits/s speed=0.0117x elapsed=0:06:16.60    \nframe=  533 fps=1.4 q=42.0 size=       1KiB time=00:00:04.43 bitrate=   1.0kbits/s speed=0.0118x elapsed=0:06:17.14    \nframe=  533 fps=1.4 q=42.0 size=       1KiB time=00:00:04.43 bitrate=   1.0kbits/s speed=0.0117x elapsed=0:06:17.73    \nframe=  537 fps=1.4 q=37.0 size=       1KiB time=00:00:04.46 bitrate=   1.0kbits/s speed=0.0118x elapsed=0:06:18.26    \nframe=  537 fps=1.4 q=37.0 size=       1KiB time=00:00:04.46 bitrate=   1.0kbits/s speed=0.0118x elapsed=0:06:18.86    \nframe=  537 fps=1.4 q=37.0 size=       1KiB time=00:00:04.46 bitrate=   1.0kbits/s speed=0.0118x elapsed=0:06:19.40    \nframe=  541 fps=1.4 q=40.0 size=       1KiB time=00:00:04.48 bitrate=   1.0kbits/s speed=0.0118x elapsed=0:06:19.94    \nframe=  541 fps=1.4 q=40.0 size=       1KiB time=00:00:04.50 bitrate=   1.0kbits/s speed=0.0118x elapsed=0:06:20.58    \nframe=  543 fps=1.4 q=42.0 size=       1KiB time=00:00:04.51 bitrate=   1.0kbits/s speed=0.0118x elapsed=0:06:21.20    \nframe=  545 fps=1.4 q=27.0 size=       1KiB time=00:00:04.53 bitrate=   1.0kbits/s speed=0.0119x elapsed=0:06:21.79    \nframe=  549 fps=1.4 q=42.0 size=       1KiB time=00:00:04.56 bitrate=   1.0kbits/s speed=0.0119x elapsed=0:06:22.45    \nframe=  549 fps=1.4 q=42.0 size=       1KiB time=00:00:04.56 bitrate=   1.0kbits/s speed=0.0119x elapsed=0:06:22.97    \nframe=  551 fps=1.4 q=37.0 size=       1KiB time=00:00:04.56 bitrate=   1.0kbits/s speed=0.0119x elapsed=0:06:23.50    \nframe=  553 fps=1.4 q=37.0 size=       1KiB time=00:00:04.58 bitrate=   1.0kbits/s speed=0.0119x elapsed=0:06:24.11    \nframe=  553 fps=1.4 q=37.0 size=       1KiB time=00:00:04.60 bitrate=   1.0kbits/s speed=0.012x elapsed=0:06:24.74    \nframe=  553 fps=1.4 q=37.0 size=       1KiB time=00:00:04.60 bitrate=   1.0kbits/s speed=0.0119x elapsed=0:06:25.25    \nframe=  555 fps=1.4 q=44.0 size=       1KiB time=00:00:04.61 bitrate=   1.0kbits/s speed=0.012x elapsed=0:06:25.84    \nframe=  557 fps=1.4 q=40.0 size=       1KiB time=00:00:04.63 bitrate=   1.0kbits/s speed=0.012x elapsed=0:06:26.38    \nframe=  559 fps=1.4 q=42.0 size=       1KiB time=00:00:04.65 bitrate=   1.0kbits/s speed=0.012x elapsed=0:06:27.01    \nframe=  561 fps=1.4 q=26.0 size=       1KiB time=00:00:04.66 bitrate=   1.0kbits/s speed=0.012x elapsed=0:06:27.54    \nframe=  561 fps=1.4 q=26.0 size=       1KiB time=00:00:04.66 bitrate=   1.0kbits/s speed=0.012x elapsed=0:06:28.07    \nframe=  565 fps=1.5 q=42.0 size=       1KiB time=00:00:04.70 bitrate=   1.0kbits/s speed=0.0121x elapsed=0:06:28.57    \nframe=  567 fps=1.5 q=45.0 size=       1KiB time=00:00:04.71 bitrate=   0.9kbits/s speed=0.0121x elapsed=0:06:29.10    \nframe=  569 fps=1.5 q=36.0 size=       1KiB time=00:00:04.73 bitrate=   0.9kbits/s speed=0.0121x elapsed=0:06:29.62    \nframe=  569 fps=1.5 q=36.0 size=       1KiB time=00:00:04.73 bitrate=   0.9kbits/s speed=0.0121x elapsed=0:06:30.15    \nframe=  569 fps=1.5 q=36.0 size=       1KiB time=00:00:04.73 bitrate=   0.9kbits/s speed=0.0121x elapsed=0:06:30.66    \nframe=  571 fps=1.5 q=43.0 size=       1KiB time=00:00:04.75 bitrate=   0.9kbits/s speed=0.0121x elapsed=0:06:31.24    \nframe=  573 fps=1.5 q=40.0 size=       1KiB time=00:00:04.76 bitrate=   0.9kbits/s speed=0.0122x elapsed=0:06:31.76    \nframe=  573 fps=1.5 q=40.0 size=       1KiB time=00:00:04.76 bitrate=   0.9kbits/s speed=0.0122x elapsed=0:06:32.28    \nframe=  575 fps=1.5 q=45.0 size=       1KiB time=00:00:04.78 bitrate=   0.9kbits/s speed=0.0122x elapsed=0:06:32.81    \nframe=  581 fps=1.5 q=46.0 size=       1KiB time=00:00:04.83 bitrate=   0.9kbits/s speed=0.0123x elapsed=0:06:33.40    \nframe=  581 fps=1.5 q=46.0 size=       1KiB time=00:00:04.83 bitrate=   0.9kbits/s speed=0.0123x elapsed=0:06:34.01    \nframe=  585 fps=1.5 q=40.0 size=       1KiB time=00:00:04.86 bitrate=   0.9kbits/s speed=0.0123x elapsed=0:06:34.64    \nframe=  585 fps=1.5 q=40.0 size=       1KiB time=00:00:04.86 bitrate=   0.9kbits/s speed=0.0123x elapsed=0:06:35.16    \nframe=  587 fps=1.5 q=46.0 size=       1KiB time=00:00:04.88 bitrate=   0.9kbits/s speed=0.0123x elapsed=0:06:35.67    \nframe=  589 fps=1.5 q=46.0 size=       1KiB time=00:00:04.90 bitrate=   0.9kbits/s speed=0.0124x elapsed=0:06:36.18    \nframe=  591 fps=1.5 q=46.0 size=       1KiB time=00:00:04.91 bitrate=   0.9kbits/s speed=0.0124x elapsed=0:06:36.70    \n[out#0/matroska @ 000002514dcd9100] video:2162KiB audio:0KiB subtitle:0KiB other streams:0KiB global headers:0KiB muxing overhead: 0.150973%\nframe=  600 fps=1.5 q=46.0 Lsize=    2166KiB time=00:00:04.99 bitrate=3554.2kbits/s speed=0.0126x elapsed=0:06:36.88    \n",
  "seconds": 399.15372347831726,
  "probe_out": {}
}